<svg xmlns="http://www.w3.org/2000/svg" width="2200" height="1400" viewBox="0 0 2200 1400">
<defs><linearGradient id="bg" x1="0" y1="0" x2="1" y2="1"><stop offset="0" stop-color="#f8fbff"/><stop offset="0.55" stop-color="#f7faf6"/><stop offset="1" stop-color="#fffaf0"/></linearGradient></defs>
<rect width="2200" height="1400" fill="url(#bg)"/>
<circle cx="1860" cy="110" r="230" fill="#e0f2fe" opacity="0.45"/>
<circle cx="240" cy="1280" r="250" fill="#dcfce7" opacity="0.35"/>
<text x="80" y="78" font-size="42" font-weight="900" fill="#111827" text-anchor="start">ERD Sistem Pengajuan Surat</text>
<text x="80" y="116" font-size="20" font-weight="500" fill="#526174" text-anchor="start">Versi kreatif: entitas inti, kunci data, dan alur relasi utama dari project Laravel surat.</text>
<rect x="60" y="165" width="500" height="1010" rx="24" fill="#eff6ff" stroke="#d7dde8" stroke-width="1.2"/>
<text x="88" y="207" font-size="24" font-weight="800" fill="#26323f" text-anchor="start">Akun &amp; Komunikasi</text>
<rect x="610" y="165" width="470" height="620" rx="24" fill="#f0fdf4" stroke="#d7dde8" stroke-width="1.2"/>
<text x="638" y="207" font-size="24" font-weight="800" fill="#26323f" text-anchor="start">Data Akademik</text>
<rect x="610" y="840" width="470" height="420" rx="24" fill="#f8fafc" stroke="#d7dde8" stroke-width="1.2"/>
<text x="638" y="882" font-size="24" font-weight="800" fill="#26323f" text-anchor="start">Detail Form</text>
<rect x="1130" y="165" width="470" height="500" rx="24" fill="#fff7ed" stroke="#d7dde8" stroke-width="1.2"/>
<text x="1158" y="207" font-size="24" font-weight="800" fill="#26323f" text-anchor="start">Master Surat &amp; Pejabat</text>
<rect x="1130" y="720" width="860" height="540" rx="24" fill="#fefce8" stroke="#d7dde8" stroke-width="1.2"/>
<text x="1158" y="762" font-size="24" font-weight="800" fill="#26323f" text-anchor="start">Workflow Pengajuan</text>
<filter id="shadow-hak_akses" x="-20%" y="-20%" width="140%" height="140%"><feDropShadow dx="0" dy="8" stdDeviation="8" flood-color="#1e293b" flood-opacity="0.12"/></filter>
<rect x="100" y="245" width="250" height="132" rx="16" fill="#ffffff" stroke="#cdd6e3" stroke-width="1.4"/>
<rect x="100" y="245" width="250" height="54" rx="16" fill="#2563eb"/>
<path d="M100 283 H350 V299 H100 Z" fill="#2563eb"/>
<text x="118" y="280" font-size="21" font-weight="800" fill="#ffffff" text-anchor="start">hak_akses</text>
<rect x="116" y="305" width="34" height="20" rx="10" fill="#fee2e2" stroke="#fee2e2" stroke-width="1"/>
<text x="133" y="320" font-size="10" font-weight="800" fill="#991b1b" text-anchor="middle">PK</text>
<text x="160" y="321" font-size="15" font-weight="500" fill="#243142" text-anchor="start">id_hak_akses</text>
<rect x="116" y="335" width="34" height="20" rx="10" fill="#eef2f7" stroke="#eef2f7" stroke-width="1"/>
<text x="133" y="350" font-size="10" font-weight="800" fill="#475569" text-anchor="middle">UK</text>
<text x="160" y="351" font-size="15" font-weight="500" fill="#243142" text-anchor="start">nama_hak_akses</text>
<filter id="shadow-users" x="-20%" y="-20%" width="140%" height="140%"><feDropShadow dx="0" dy="8" stdDeviation="8" flood-color="#1e293b" flood-opacity="0.12"/></filter>
<rect x="100" y="505" width="290" height="252" rx="16" fill="#ffffff" stroke="#cdd6e3" stroke-width="1.4"/>
<rect x="100" y="505" width="290" height="54" rx="16" fill="#2563eb"/>
<path d="M100 543 H390 V559 H100 Z" fill="#2563eb"/>
<text x="118" y="540" font-size="21" font-weight="800" fill="#ffffff" text-anchor="start">users</text>
<rect x="116" y="565" width="34" height="20" rx="10" fill="#fee2e2" stroke="#fee2e2" stroke-width="1"/>
<text x="133" y="580" font-size="10" font-weight="800" fill="#991b1b" text-anchor="middle">PK</text>
<text x="160" y="581" font-size="15" font-weight="500" fill="#243142" text-anchor="start">id_user</text>
<rect x="116" y="595" width="34" height="20" rx="10" fill="#dcfce7" stroke="#dcfce7" stroke-width="1"/>
<text x="133" y="610" font-size="10" font-weight="800" fill="#166534" text-anchor="middle">FK</text>
<text x="160" y="611" font-size="15" font-weight="500" fill="#243142" text-anchor="start">id_hak_akses</text>
<rect x="116" y="625" width="34" height="20" rx="10" fill="#eef2f7" stroke="#eef2f7" stroke-width="1"/>
<text x="133" y="640" font-size="10" font-weight="800" fill="#475569" text-anchor="middle">UK</text>
<text x="160" y="641" font-size="15" font-weight="500" fill="#243142" text-anchor="start">username</text>
<rect x="116" y="655" width="34" height="20" rx="10" fill="#eef2f7" stroke="#eef2f7" stroke-width="1"/>
<text x="133" y="670" font-size="10" font-weight="800" fill="#475569" text-anchor="middle">UK</text>
<text x="160" y="671" font-size="15" font-weight="500" fill="#243142" text-anchor="start">email</text>
<rect x="116" y="685" width="34" height="20" rx="10" fill="#eef2f7" stroke="#eef2f7" stroke-width="1"/>
<text x="133" y="700" font-size="10" font-weight="800" fill="#475569" text-anchor="middle">nama_lengkap</text>
<text x="160" y="701" font-size="15" font-weight="500" fill="#243142" text-anchor="start"></text>
<rect x="116" y="715" width="34" height="20" rx="10" fill="#eef2f7" stroke="#eef2f7" stroke-width="1"/>
<text x="133" y="730" font-size="10" font-weight="800" fill="#475569" text-anchor="middle">status_aktif</text>
<text x="160" y="731" font-size="15" font-weight="500" fill="#243142" text-anchor="start"></text>
<filter id="shadow-notifikasi" x="-20%" y="-20%" width="140%" height="140%"><feDropShadow dx="0" dy="8" stdDeviation="8" flood-color="#1e293b" flood-opacity="0.12"/></filter>
<rect x="100" y="835" width="290" height="252" rx="16" fill="#ffffff" stroke="#cdd6e3" stroke-width="1.4"/>
<rect x="100" y="835" width="290" height="54" rx="16" fill="#0ea5e9"/>
<path d="M100 873 H390 V889 H100 Z" fill="#0ea5e9"/>
<text x="118" y="870" font-size="21" font-weight="800" fill="#ffffff" text-anchor="start">notifikasi</text>
<rect x="116" y="895" width="34" height="20" rx="10" fill="#fee2e2" stroke="#fee2e2" stroke-width="1"/>
<text x="133" y="910" font-size="10" font-weight="800" fill="#991b1b" text-anchor="middle">PK</text>
<text x="160" y="911" font-size="15" font-weight="500" fill="#243142" text-anchor="start">id_notifikasi</text>
<rect x="116" y="925" width="34" height="20" rx="10" fill="#dcfce7" stroke="#dcfce7" stroke-width="1"/>
<text x="133" y="940" font-size="10" font-weight="800" fill="#166534" text-anchor="middle">FK</text>
<text x="160" y="941" font-size="15" font-weight="500" fill="#243142" text-anchor="start">id_user_penerima</text>
<rect x="116" y="955" width="34" height="20" rx="10" fill="#eef2f7" stroke="#eef2f7" stroke-width="1"/>
<text x="133" y="970" font-size="10" font-weight="800" fill="#475569" text-anchor="middle">judul</text>
<text x="160" y="971" font-size="15" font-weight="500" fill="#243142" text-anchor="start"></text>
<rect x="116" y="985" width="34" height="20" rx="10" fill="#eef2f7" stroke="#eef2f7" stroke-width="1"/>
<text x="133" y="1000" font-size="10" font-weight="800" fill="#475569" text-anchor="middle">pesan</text>
<text x="160" y="1001" font-size="15" font-weight="500" fill="#243142" text-anchor="start"></text>
<rect x="116" y="1015" width="34" height="20" rx="10" fill="#eef2f7" stroke="#eef2f7" stroke-width="1"/>
<text x="133" y="1030" font-size="10" font-weight="800" fill="#475569" text-anchor="middle">type</text>
<text x="160" y="1031" font-size="15" font-weight="500" fill="#243142" text-anchor="start">/ link</text>
<rect x="116" y="1045" width="34" height="20" rx="10" fill="#eef2f7" stroke="#eef2f7" stroke-width="1"/>
<text x="133" y="1060" font-size="10" font-weight="800" fill="#475569" text-anchor="middle">is_read</text>
<text x="160" y="1061" font-size="15" font-weight="500" fill="#243142" text-anchor="start"></text>
<filter id="shadow-log_aktivitas" x="-20%" y="-20%" width="140%" height="140%"><feDropShadow dx="0" dy="8" stdDeviation="8" flood-color="#1e293b" flood-opacity="0.12"/></filter>
<rect x="100" y="1065" width="290" height="222" rx="16" fill="#ffffff" stroke="#cdd6e3" stroke-width="1.4"/>
<rect x="100" y="1065" width="290" height="54" rx="16" fill="#0ea5e9"/>
<path d="M100 1103 H390 V1119 H100 Z" fill="#0ea5e9"/>
<text x="118" y="1100" font-size="21" font-weight="800" fill="#ffffff" text-anchor="start">log_aktivitas</text>
<rect x="116" y="1125" width="34" height="20" rx="10" fill="#fee2e2" stroke="#fee2e2" stroke-width="1"/>
<text x="133" y="1140" font-size="10" font-weight="800" fill="#991b1b" text-anchor="middle">PK</text>
<text x="160" y="1141" font-size="15" font-weight="500" fill="#243142" text-anchor="start">id_log</text>
<rect x="116" y="1155" width="34" height="20" rx="10" fill="#dcfce7" stroke="#dcfce7" stroke-width="1"/>
<text x="133" y="1170" font-size="10" font-weight="800" fill="#166534" text-anchor="middle">FK</text>
<text x="160" y="1171" font-size="15" font-weight="500" fill="#243142" text-anchor="start">id_user</text>
<rect x="116" y="1185" width="34" height="20" rx="10" fill="#eef2f7" stroke="#eef2f7" stroke-width="1"/>
<text x="133" y="1200" font-size="10" font-weight="800" fill="#475569" text-anchor="middle">waktu</text>
<text x="160" y="1201" font-size="15" font-weight="500" fill="#243142" text-anchor="start"></text>
<rect x="116" y="1215" width="34" height="20" rx="10" fill="#eef2f7" stroke="#eef2f7" stroke-width="1"/>
<text x="133" y="1230" font-size="10" font-weight="800" fill="#475569" text-anchor="middle">tipe_aktivitas</text>
<text x="160" y="1231" font-size="15" font-weight="500" fill="#243142" text-anchor="start"></text>
<rect x="116" y="1245" width="34" height="20" rx="10" fill="#eef2f7" stroke="#eef2f7" stroke-width="1"/>
<text x="133" y="1260" font-size="10" font-weight="800" fill="#475569" text-anchor="middle">deskripsi</text>
<text x="160" y="1261" font-size="15" font-weight="500" fill="#243142" text-anchor="start"></text>
<filter id="shadow-fakultas" x="-20%" y="-20%" width="140%" height="140%"><feDropShadow dx="0" dy="8" stdDeviation="8" flood-color="#1e293b" flood-opacity="0.12"/></filter>
<rect x="655" y="245" width="270" height="162" rx="16" fill="#ffffff" stroke="#cdd6e3" stroke-width="1.4"/>
<rect x="655" y="245" width="270" height="54" rx="16" fill="#16a34a"/>
<path d="M655 283 H925 V299 H655 Z" fill="#16a34a"/>
<text x="673" y="280" font-size="21" font-weight="800" fill="#ffffff" text-anchor="start">fakultas</text>
<rect x="671" y="305" width="34" height="20" rx="10" fill="#fee2e2" stroke="#fee2e2" stroke-width="1"/>
<text x="688" y="320" font-size="10" font-weight="800" fill="#991b1b" text-anchor="middle">PK</text>
<text x="715" y="321" font-size="15" font-weight="500" fill="#243142" text-anchor="start">id_fakultas</text>
<rect x="671" y="335" width="34" height="20" rx="10" fill="#eef2f7" stroke="#eef2f7" stroke-width="1"/>
<text x="688" y="350" font-size="10" font-weight="800" fill="#475569" text-anchor="middle">nama_fakultas</text>
<text x="715" y="351" font-size="15" font-weight="500" fill="#243142" text-anchor="start"></text>
<rect x="671" y="365" width="34" height="20" rx="10" fill="#eef2f7" stroke="#eef2f7" stroke-width="1"/>
<text x="688" y="380" font-size="10" font-weight="800" fill="#475569" text-anchor="middle">kode_fakultas</text>
<text x="715" y="381" font-size="15" font-weight="500" fill="#243142" text-anchor="start"></text>
<filter id="shadow-program_studi" x="-20%" y="-20%" width="140%" height="140%"><feDropShadow dx="0" dy="8" stdDeviation="8" flood-color="#1e293b" flood-opacity="0.12"/></filter>
<rect x="655" y="465" width="280" height="192" rx="16" fill="#ffffff" stroke="#cdd6e3" stroke-width="1.4"/>
<rect x="655" y="465" width="280" height="54" rx="16" fill="#16a34a"/>
<path d="M655 503 H935 V519 H655 Z" fill="#16a34a"/>
<text x="673" y="500" font-size="21" font-weight="800" fill="#ffffff" text-anchor="start">program_studi</text>
<rect x="671" y="525" width="34" height="20" rx="10" fill="#fee2e2" stroke="#fee2e2" stroke-width="1"/>
<text x="688" y="540" font-size="10" font-weight="800" fill="#991b1b" text-anchor="middle">PK</text>
<text x="715" y="541" font-size="15" font-weight="500" fill="#243142" text-anchor="start">id_prodi</text>
<rect x="671" y="555" width="34" height="20" rx="10" fill="#dcfce7" stroke="#dcfce7" stroke-width="1"/>
<text x="688" y="570" font-size="10" font-weight="800" fill="#166534" text-anchor="middle">FK</text>
<text x="715" y="571" font-size="15" font-weight="500" fill="#243142" text-anchor="start">id_fakultas</text>
<rect x="671" y="585" width="34" height="20" rx="10" fill="#eef2f7" stroke="#eef2f7" stroke-width="1"/>
<text x="688" y="600" font-size="10" font-weight="800" fill="#475569" text-anchor="middle">UK</text>
<text x="715" y="601" font-size="15" font-weight="500" fill="#243142" text-anchor="start">kode_prodi</text>
<rect x="671" y="615" width="34" height="20" rx="10" fill="#eef2f7" stroke="#eef2f7" stroke-width="1"/>
<text x="688" y="630" font-size="10" font-weight="800" fill="#475569" text-anchor="middle">nama_prodi</text>
<text x="715" y="631" font-size="15" font-weight="500" fill="#243142" text-anchor="start"></text>
<filter id="shadow-mahasiswa" x="-20%" y="-20%" width="140%" height="140%"><feDropShadow dx="0" dy="8" stdDeviation="8" flood-color="#1e293b" flood-opacity="0.12"/></filter>
<rect x="655" y="685" width="300" height="282" rx="16" fill="#ffffff" stroke="#cdd6e3" stroke-width="1.4"/>
<rect x="655" y="685" width="300" height="54" rx="16" fill="#16a34a"/>
<path d="M655 723 H955 V739 H655 Z" fill="#16a34a"/>
<text x="673" y="720" font-size="21" font-weight="800" fill="#ffffff" text-anchor="start">mahasiswa</text>
<rect x="671" y="745" width="34" height="20" rx="10" fill="#fee2e2" stroke="#fee2e2" stroke-width="1"/>
<text x="688" y="760" font-size="10" font-weight="800" fill="#991b1b" text-anchor="middle">PK</text>
<text x="715" y="761" font-size="15" font-weight="500" fill="#243142" text-anchor="start">id_mahasiswa</text>
<rect x="671" y="775" width="34" height="20" rx="10" fill="#dcfce7" stroke="#dcfce7" stroke-width="1"/>
<text x="688" y="790" font-size="10" font-weight="800" fill="#166534" text-anchor="middle">FK</text>
<text x="715" y="791" font-size="15" font-weight="500" fill="#243142" text-anchor="start">id_user</text>
<rect x="671" y="805" width="34" height="20" rx="10" fill="#dcfce7" stroke="#dcfce7" stroke-width="1"/>
<text x="688" y="820" font-size="10" font-weight="800" fill="#166534" text-anchor="middle">FK</text>
<text x="715" y="821" font-size="15" font-weight="500" fill="#243142" text-anchor="start">id_prodi</text>
<rect x="671" y="835" width="34" height="20" rx="10" fill="#eef2f7" stroke="#eef2f7" stroke-width="1"/>
<text x="688" y="850" font-size="10" font-weight="800" fill="#475569" text-anchor="middle">UK</text>
<text x="715" y="851" font-size="15" font-weight="500" fill="#243142" text-anchor="start">nim</text>
<rect x="671" y="865" width="34" height="20" rx="10" fill="#eef2f7" stroke="#eef2f7" stroke-width="1"/>
<text x="688" y="880" font-size="10" font-weight="800" fill="#475569" text-anchor="middle">angkatan</text>
<text x="715" y="881" font-size="15" font-weight="500" fill="#243142" text-anchor="start"></text>
<rect x="671" y="895" width="34" height="20" rx="10" fill="#eef2f7" stroke="#eef2f7" stroke-width="1"/>
<text x="688" y="910" font-size="10" font-weight="800" fill="#475569" text-anchor="middle">status_mahasiswa</text>
<text x="715" y="911" font-size="15" font-weight="500" fill="#243142" text-anchor="start"></text>
<rect x="671" y="925" width="34" height="20" rx="10" fill="#eef2f7" stroke="#eef2f7" stroke-width="1"/>
<text x="688" y="940" font-size="10" font-weight="800" fill="#475569" text-anchor="middle">ipk_terakhir</text>
<text x="715" y="941" font-size="15" font-weight="500" fill="#243142" text-anchor="start"></text>
<filter id="shadow-detail_pengajuan" x="-20%" y="-20%" width="140%" height="140%"><feDropShadow dx="0" dy="8" stdDeviation="8" flood-color="#1e293b" flood-opacity="0.12"/></filter>
<rect x="655" y="930" width="300" height="222" rx="16" fill="#ffffff" stroke="#cdd6e3" stroke-width="1.4"/>
<rect x="655" y="930" width="300" height="54" rx="16" fill="#64748b"/>
<path d="M655 968 H955 V984 H655 Z" fill="#64748b"/>
<text x="673" y="965" font-size="21" font-weight="800" fill="#ffffff" text-anchor="start">detail_pengajuan</text>
<rect x="671" y="990" width="34" height="20" rx="10" fill="#fee2e2" stroke="#fee2e2" stroke-width="1"/>
<text x="688" y="1005" font-size="10" font-weight="800" fill="#991b1b" text-anchor="middle">PK</text>
<text x="715" y="1006" font-size="15" font-weight="500" fill="#243142" text-anchor="start">id_detail</text>
<rect x="671" y="1020" width="34" height="20" rx="10" fill="#dcfce7" stroke="#dcfce7" stroke-width="1"/>
<text x="688" y="1035" font-size="10" font-weight="800" fill="#166534" text-anchor="middle">FK</text>
<text x="715" y="1036" font-size="15" font-weight="500" fill="#243142" text-anchor="start">id_pengajuan</text>
<rect x="671" y="1050" width="34" height="20" rx="10" fill="#eef2f7" stroke="#eef2f7" stroke-width="1"/>
<text x="688" y="1065" font-size="10" font-weight="800" fill="#475569" text-anchor="middle">kode_field_template</text>
<text x="715" y="1066" font-size="15" font-weight="500" fill="#243142" text-anchor="start"></text>
<rect x="671" y="1080" width="34" height="20" rx="10" fill="#eef2f7" stroke="#eef2f7" stroke-width="1"/>
<text x="688" y="1095" font-size="10" font-weight="800" fill="#475569" text-anchor="middle">label_field</text>
<text x="715" y="1096" font-size="15" font-weight="500" fill="#243142" text-anchor="start"></text>
<rect x="671" y="1110" width="34" height="20" rx="10" fill="#eef2f7" stroke="#eef2f7" stroke-width="1"/>
<text x="688" y="1125" font-size="10" font-weight="800" fill="#475569" text-anchor="middle">nilai_field</text>
<text x="715" y="1126" font-size="15" font-weight="500" fill="#243142" text-anchor="start"></text>
<filter id="shadow-jabatan" x="-20%" y="-20%" width="140%" height="140%"><feDropShadow dx="0" dy="8" stdDeviation="8" flood-color="#1e293b" flood-opacity="0.12"/></filter>
<rect x="1175" y="245" width="270" height="162" rx="16" fill="#ffffff" stroke="#cdd6e3" stroke-width="1.4"/>
<rect x="1175" y="245" width="270" height="54" rx="16" fill="#f97316"/>
<path d="M1175 283 H1445 V299 H1175 Z" fill="#f97316"/>
<text x="1193" y="280" font-size="21" font-weight="800" fill="#ffffff" text-anchor="start">jabatan</text>
<rect x="1191" y="305" width="34" height="20" rx="10" fill="#fee2e2" stroke="#fee2e2" stroke-width="1"/>
<text x="1208" y="320" font-size="10" font-weight="800" fill="#991b1b" text-anchor="middle">PK</text>
<text x="1235" y="321" font-size="15" font-weight="500" fill="#243142" text-anchor="start">id_jabatan</text>
<rect x="1191" y="335" width="34" height="20" rx="10" fill="#eef2f7" stroke="#eef2f7" stroke-width="1"/>
<text x="1208" y="350" font-size="10" font-weight="800" fill="#475569" text-anchor="middle">UK</text>
<text x="1235" y="351" font-size="15" font-weight="500" fill="#243142" text-anchor="start">nama_jabatan</text>
<rect x="1191" y="365" width="34" height="20" rx="10" fill="#eef2f7" stroke="#eef2f7" stroke-width="1"/>
<text x="1208" y="380" font-size="10" font-weight="800" fill="#475569" text-anchor="middle">UK</text>
<text x="1235" y="381" font-size="15" font-weight="500" fill="#243142" text-anchor="start">kode_jabatan</text>
<filter id="shadow-pejabat" x="-20%" y="-20%" width="140%" height="140%"><feDropShadow dx="0" dy="8" stdDeviation="8" flood-color="#1e293b" flood-opacity="0.12"/></filter>
<rect x="1175" y="465" width="290" height="222" rx="16" fill="#ffffff" stroke="#cdd6e3" stroke-width="1.4"/>
<rect x="1175" y="465" width="290" height="54" rx="16" fill="#f97316"/>
<path d="M1175 503 H1465 V519 H1175 Z" fill="#f97316"/>
<text x="1193" y="500" font-size="21" font-weight="800" fill="#ffffff" text-anchor="start">pejabat</text>
<rect x="1191" y="525" width="34" height="20" rx="10" fill="#fee2e2" stroke="#fee2e2" stroke-width="1"/>
<text x="1208" y="540" font-size="10" font-weight="800" fill="#991b1b" text-anchor="middle">PK</text>
<text x="1235" y="541" font-size="15" font-weight="500" fill="#243142" text-anchor="start">id_pejabat</text>
<rect x="1191" y="555" width="34" height="20" rx="10" fill="#dcfce7" stroke="#dcfce7" stroke-width="1"/>
<text x="1208" y="570" font-size="10" font-weight="800" fill="#166534" text-anchor="middle">FK</text>
<text x="1235" y="571" font-size="15" font-weight="500" fill="#243142" text-anchor="start">id_user</text>
<rect x="1191" y="585" width="34" height="20" rx="10" fill="#dcfce7" stroke="#dcfce7" stroke-width="1"/>
<text x="1208" y="600" font-size="10" font-weight="800" fill="#166534" text-anchor="middle">FK</text>
<text x="1235" y="601" font-size="15" font-weight="500" fill="#243142" text-anchor="start">id_jabatan</text>
<rect x="1191" y="615" width="34" height="20" rx="10" fill="#eef2f7" stroke="#eef2f7" stroke-width="1"/>
<text x="1208" y="630" font-size="10" font-weight="800" fill="#475569" text-anchor="middle">UK</text>
<text x="1235" y="631" font-size="15" font-weight="500" fill="#243142" text-anchor="start">nip</text>
<rect x="1191" y="645" width="34" height="20" rx="10" fill="#eef2f7" stroke="#eef2f7" stroke-width="1"/>
<text x="1208" y="660" font-size="10" font-weight="800" fill="#475569" text-anchor="middle">is_aktif_ttd</text>
<text x="1235" y="661" font-size="15" font-weight="500" fill="#243142" text-anchor="start"></text>
<filter id="shadow-jenis_surat" x="-20%" y="-20%" width="140%" height="140%"><feDropShadow dx="0" dy="8" stdDeviation="8" flood-color="#1e293b" flood-opacity="0.12"/></filter>
<rect x="1515" y="245" width="330" height="222" rx="16" fill="#ffffff" stroke="#cdd6e3" stroke-width="1.4"/>
<rect x="1515" y="245" width="330" height="54" rx="16" fill="#f59e0b"/>
<path d="M1515 283 H1845 V299 H1515 Z" fill="#f59e0b"/>
<text x="1533" y="280" font-size="21" font-weight="800" fill="#ffffff" text-anchor="start">jenis_surat</text>
<rect x="1531" y="305" width="34" height="20" rx="10" fill="#fee2e2" stroke="#fee2e2" stroke-width="1"/>
<text x="1548" y="320" font-size="10" font-weight="800" fill="#991b1b" text-anchor="middle">PK</text>
<text x="1575" y="321" font-size="15" font-weight="500" fill="#243142" text-anchor="start">id_jenis_surat</text>
<rect x="1531" y="335" width="34" height="20" rx="10" fill="#eef2f7" stroke="#eef2f7" stroke-width="1"/>
<text x="1548" y="350" font-size="10" font-weight="800" fill="#475569" text-anchor="middle">nama_surat</text>
<text x="1575" y="351" font-size="15" font-weight="500" fill="#243142" text-anchor="start"></text>
<rect x="1531" y="365" width="34" height="20" rx="10" fill="#eef2f7" stroke="#eef2f7" stroke-width="1"/>
<text x="1548" y="380" font-size="10" font-weight="800" fill="#475569" text-anchor="middle">template_path</text>
<text x="1575" y="381" font-size="15" font-weight="500" fill="#243142" text-anchor="start"></text>
<rect x="1531" y="395" width="34" height="20" rx="10" fill="#eef2f7" stroke="#eef2f7" stroke-width="1"/>
<text x="1548" y="410" font-size="10" font-weight="800" fill="#475569" text-anchor="middle">pejabat_yg_menandatangani</text>
<text x="1575" y="411" font-size="15" font-weight="500" fill="#243142" text-anchor="start"></text>
<rect x="1531" y="425" width="34" height="20" rx="10" fill="#eef2f7" stroke="#eef2f7" stroke-width="1"/>
<text x="1548" y="440" font-size="10" font-weight="800" fill="#475569" text-anchor="middle">perlu_validasi_dekan</text>
<text x="1575" y="441" font-size="15" font-weight="500" fill="#243142" text-anchor="start"></text>
<filter id="shadow-digital_signatures" x="-20%" y="-20%" width="140%" height="140%"><feDropShadow dx="0" dy="8" stdDeviation="8" flood-color="#1e293b" flood-opacity="0.12"/></filter>
<rect x="1515" y="505" width="300" height="252" rx="16" fill="#ffffff" stroke="#cdd6e3" stroke-width="1.4"/>
<rect x="1515" y="505" width="300" height="54" rx="16" fill="#a855f7"/>
<path d="M1515 543 H1815 V559 H1515 Z" fill="#a855f7"/>
<text x="1533" y="540" font-size="21" font-weight="800" fill="#ffffff" text-anchor="start">digital_signatures</text>
<rect x="1531" y="565" width="34" height="20" rx="10" fill="#fee2e2" stroke="#fee2e2" stroke-width="1"/>
<text x="1548" y="580" font-size="10" font-weight="800" fill="#991b1b" text-anchor="middle">PK</text>
<text x="1575" y="581" font-size="15" font-weight="500" fill="#243142" text-anchor="start">id</text>
<rect x="1531" y="595" width="34" height="20" rx="10" fill="#dcfce7" stroke="#dcfce7" stroke-width="1"/>
<text x="1548" y="610" font-size="10" font-weight="800" fill="#166534" text-anchor="middle">FK</text>
<text x="1575" y="611" font-size="15" font-weight="500" fill="#243142" text-anchor="start">user_id</text>
<rect x="1531" y="625" width="34" height="20" rx="10" fill="#eef2f7" stroke="#eef2f7" stroke-width="1"/>
<text x="1548" y="640" font-size="10" font-weight="800" fill="#475569" text-anchor="middle">name</text>
<text x="1575" y="641" font-size="15" font-weight="500" fill="#243142" text-anchor="start"></text>
<rect x="1531" y="655" width="34" height="20" rx="10" fill="#eef2f7" stroke="#eef2f7" stroke-width="1"/>
<text x="1548" y="670" font-size="10" font-weight="800" fill="#475569" text-anchor="middle">type</text>
<text x="1575" y="671" font-size="15" font-weight="500" fill="#243142" text-anchor="start"></text>
<rect x="1531" y="685" width="34" height="20" rx="10" fill="#eef2f7" stroke="#eef2f7" stroke-width="1"/>
<text x="1548" y="700" font-size="10" font-weight="800" fill="#475569" text-anchor="middle">path</text>
<text x="1575" y="701" font-size="15" font-weight="500" fill="#243142" text-anchor="start"></text>
<rect x="1531" y="715" width="34" height="20" rx="10" fill="#eef2f7" stroke="#eef2f7" stroke-width="1"/>
<text x="1548" y="730" font-size="10" font-weight="800" fill="#475569" text-anchor="middle">is_active</text>
<text x="1575" y="731" font-size="15" font-weight="500" fill="#243142" text-anchor="start"></text>
<filter id="shadow-pengajuan_surat" x="-20%" y="-20%" width="140%" height="140%"><feDropShadow dx="0" dy="8" stdDeviation="8" flood-color="#1e293b" flood-opacity="0.12"/></filter>
<rect x="1135" y="810" width="340" height="312" rx="16" fill="#ffffff" stroke="#cdd6e3" stroke-width="1.4"/>
<rect x="1135" y="810" width="340" height="54" rx="16" fill="#dc2626"/>
<path d="M1135 848 H1475 V864 H1135 Z" fill="#dc2626"/>
<text x="1153" y="845" font-size="21" font-weight="800" fill="#ffffff" text-anchor="start">pengajuan_surat</text>
<rect x="1151" y="870" width="34" height="20" rx="10" fill="#fee2e2" stroke="#fee2e2" stroke-width="1"/>
<text x="1168" y="885" font-size="10" font-weight="800" fill="#991b1b" text-anchor="middle">PK</text>
<text x="1195" y="886" font-size="15" font-weight="500" fill="#243142" text-anchor="start">id_pengajuan</text>
<rect x="1151" y="900" width="34" height="20" rx="10" fill="#dcfce7" stroke="#dcfce7" stroke-width="1"/>
<text x="1168" y="915" font-size="10" font-weight="800" fill="#166534" text-anchor="middle">FK</text>
<text x="1195" y="916" font-size="15" font-weight="500" fill="#243142" text-anchor="start">id_mahasiswa</text>
<rect x="1151" y="930" width="34" height="20" rx="10" fill="#dcfce7" stroke="#dcfce7" stroke-width="1"/>
<text x="1168" y="945" font-size="10" font-weight="800" fill="#166534" text-anchor="middle">FK</text>
<text x="1195" y="946" font-size="15" font-weight="500" fill="#243142" text-anchor="start">id_jenis_surat</text>
<rect x="1151" y="960" width="34" height="20" rx="10" fill="#dcfce7" stroke="#dcfce7" stroke-width="1"/>
<text x="1168" y="975" font-size="10" font-weight="800" fill="#166534" text-anchor="middle">FK</text>
<text x="1195" y="976" font-size="15" font-weight="500" fill="#243142" text-anchor="start">digital_signature_id</text>
<rect x="1151" y="990" width="34" height="20" rx="10" fill="#eef2f7" stroke="#eef2f7" stroke-width="1"/>
<text x="1168" y="1005" font-size="10" font-weight="800" fill="#475569" text-anchor="middle">tgl_pengajuan</text>
<text x="1195" y="1006" font-size="15" font-weight="500" fill="#243142" text-anchor="start"></text>
<rect x="1151" y="1020" width="34" height="20" rx="10" fill="#eef2f7" stroke="#eef2f7" stroke-width="1"/>
<text x="1168" y="1035" font-size="10" font-weight="800" fill="#475569" text-anchor="middle">status_saat_ini</text>
<text x="1195" y="1036" font-size="15" font-weight="500" fill="#243142" text-anchor="start"></text>
<rect x="1151" y="1050" width="34" height="20" rx="10" fill="#eef2f7" stroke="#eef2f7" stroke-width="1"/>
<text x="1168" y="1065" font-size="10" font-weight="800" fill="#475569" text-anchor="middle">nomor_surat_resmi</text>
<text x="1195" y="1066" font-size="15" font-weight="500" fill="#243142" text-anchor="start"></text>
<rect x="1151" y="1080" width="34" height="20" rx="10" fill="#eef2f7" stroke="#eef2f7" stroke-width="1"/>
<text x="1168" y="1095" font-size="10" font-weight="800" fill="#475569" text-anchor="middle">file_surat_content</text>
<text x="1195" y="1096" font-size="15" font-weight="500" fill="#243142" text-anchor="start"></text>
<filter id="shadow-validasi_staff" x="-20%" y="-20%" width="140%" height="140%"><feDropShadow dx="0" dy="8" stdDeviation="8" flood-color="#1e293b" flood-opacity="0.12"/></filter>
<rect x="1525" y="860" width="300" height="222" rx="16" fill="#ffffff" stroke="#cdd6e3" stroke-width="1.4"/>
<rect x="1525" y="860" width="300" height="54" rx="16" fill="#ca8a04"/>
<path d="M1525 898 H1825 V914 H1525 Z" fill="#ca8a04"/>
<text x="1543" y="895" font-size="21" font-weight="800" fill="#ffffff" text-anchor="start">validasi_staff</text>
<rect x="1541" y="920" width="34" height="20" rx="10" fill="#fee2e2" stroke="#fee2e2" stroke-width="1"/>
<text x="1558" y="935" font-size="10" font-weight="800" fill="#991b1b" text-anchor="middle">PK</text>
<text x="1585" y="936" font-size="15" font-weight="500" fill="#243142" text-anchor="start">id_validasi</text>
<rect x="1541" y="950" width="34" height="20" rx="10" fill="#dcfce7" stroke="#dcfce7" stroke-width="1"/>
<text x="1558" y="965" font-size="10" font-weight="800" fill="#166534" text-anchor="middle">FK</text>
<text x="1585" y="966" font-size="15" font-weight="500" fill="#243142" text-anchor="start">id_pengajuan</text>
<rect x="1541" y="980" width="34" height="20" rx="10" fill="#dcfce7" stroke="#dcfce7" stroke-width="1"/>
<text x="1558" y="995" font-size="10" font-weight="800" fill="#166534" text-anchor="middle">FK</text>
<text x="1585" y="996" font-size="15" font-weight="500" fill="#243142" text-anchor="start">id_user_staff</text>
<rect x="1541" y="1010" width="34" height="20" rx="10" fill="#eef2f7" stroke="#eef2f7" stroke-width="1"/>
<text x="1558" y="1025" font-size="10" font-weight="800" fill="#475569" text-anchor="middle">tgl_validasi</text>
<text x="1585" y="1026" font-size="15" font-weight="500" fill="#243142" text-anchor="start"></text>
<rect x="1541" y="1040" width="34" height="20" rx="10" fill="#eef2f7" stroke="#eef2f7" stroke-width="1"/>
<text x="1558" y="1055" font-size="10" font-weight="800" fill="#475569" text-anchor="middle">status_validasi</text>
<text x="1585" y="1056" font-size="15" font-weight="500" fill="#243142" text-anchor="start"></text>
<filter id="shadow-persetujuan_pejabat" x="-20%" y="-20%" width="140%" height="140%"><feDropShadow dx="0" dy="8" stdDeviation="8" flood-color="#1e293b" flood-opacity="0.12"/></filter>
<rect x="1525" y="1070" width="330" height="222" rx="16" fill="#ffffff" stroke="#cdd6e3" stroke-width="1.4"/>
<rect x="1525" y="1070" width="330" height="54" rx="16" fill="#ca8a04"/>
<path d="M1525 1108 H1855 V1124 H1525 Z" fill="#ca8a04"/>
<text x="1543" y="1105" font-size="21" font-weight="800" fill="#ffffff" text-anchor="start">persetujuan_pejabat</text>
<rect x="1541" y="1130" width="34" height="20" rx="10" fill="#fee2e2" stroke="#fee2e2" stroke-width="1"/>
<text x="1558" y="1145" font-size="10" font-weight="800" fill="#991b1b" text-anchor="middle">PK</text>
<text x="1585" y="1146" font-size="15" font-weight="500" fill="#243142" text-anchor="start">id_persetujuan</text>
<rect x="1541" y="1160" width="34" height="20" rx="10" fill="#dcfce7" stroke="#dcfce7" stroke-width="1"/>
<text x="1558" y="1175" font-size="10" font-weight="800" fill="#166534" text-anchor="middle">FK</text>
<text x="1585" y="1176" font-size="15" font-weight="500" fill="#243142" text-anchor="start">id_pengajuan</text>
<rect x="1541" y="1190" width="34" height="20" rx="10" fill="#dcfce7" stroke="#dcfce7" stroke-width="1"/>
<text x="1558" y="1205" font-size="10" font-weight="800" fill="#166534" text-anchor="middle">FK</text>
<text x="1585" y="1206" font-size="15" font-weight="500" fill="#243142" text-anchor="start">id_pejabat</text>
<rect x="1541" y="1220" width="34" height="20" rx="10" fill="#eef2f7" stroke="#eef2f7" stroke-width="1"/>
<text x="1558" y="1235" font-size="10" font-weight="800" fill="#475569" text-anchor="middle">tgl_persetujuan</text>
<text x="1585" y="1236" font-size="15" font-weight="500" fill="#243142" text-anchor="start"></text>
<rect x="1541" y="1250" width="34" height="20" rx="10" fill="#eef2f7" stroke="#eef2f7" stroke-width="1"/>
<text x="1558" y="1265" font-size="10" font-weight="800" fill="#475569" text-anchor="middle">status_persetujuan</text>
<text x="1585" y="1266" font-size="15" font-weight="500" fill="#243142" text-anchor="start"></text>
<filter id="shadow-log_status_surat" x="-20%" y="-20%" width="140%" height="140%"><feDropShadow dx="0" dy="8" stdDeviation="8" flood-color="#1e293b" flood-opacity="0.12"/></filter>
<rect x="1870" y="840" width="300" height="252" rx="16" fill="#ffffff" stroke="#cdd6e3" stroke-width="1.4"/>
<rect x="1870" y="840" width="300" height="54" rx="16" fill="#ca8a04"/>
<path d="M1870 878 H2170 V894 H1870 Z" fill="#ca8a04"/>
<text x="1888" y="875" font-size="21" font-weight="800" fill="#ffffff" text-anchor="start">log_status_surat</text>
<rect x="1886" y="900" width="34" height="20" rx="10" fill="#fee2e2" stroke="#fee2e2" stroke-width="1"/>
<text x="1903" y="915" font-size="10" font-weight="800" fill="#991b1b" text-anchor="middle">PK</text>
<text x="1930" y="916" font-size="15" font-weight="500" fill="#243142" text-anchor="start">id_log_status</text>
<rect x="1886" y="930" width="34" height="20" rx="10" fill="#dcfce7" stroke="#dcfce7" stroke-width="1"/>
<text x="1903" y="945" font-size="10" font-weight="800" fill="#166534" text-anchor="middle">FK</text>
<text x="1930" y="946" font-size="15" font-weight="500" fill="#243142" text-anchor="start">id_pengajuan</text>
<rect x="1886" y="960" width="34" height="20" rx="10" fill="#dcfce7" stroke="#dcfce7" stroke-width="1"/>
<text x="1903" y="975" font-size="10" font-weight="800" fill="#166534" text-anchor="middle">FK</text>
<text x="1930" y="976" font-size="15" font-weight="500" fill="#243142" text-anchor="start">diubah_oleh_user</text>
<rect x="1886" y="990" width="34" height="20" rx="10" fill="#eef2f7" stroke="#eef2f7" stroke-width="1"/>
<text x="1903" y="1005" font-size="10" font-weight="800" fill="#475569" text-anchor="middle">status_lama</text>
<text x="1930" y="1006" font-size="15" font-weight="500" fill="#243142" text-anchor="start"></text>
<rect x="1886" y="1020" width="34" height="20" rx="10" fill="#eef2f7" stroke="#eef2f7" stroke-width="1"/>
<text x="1903" y="1035" font-size="10" font-weight="800" fill="#475569" text-anchor="middle">status_baru</text>
<text x="1930" y="1036" font-size="15" font-weight="500" fill="#243142" text-anchor="start"></text>
<rect x="1886" y="1050" width="34" height="20" rx="10" fill="#eef2f7" stroke="#eef2f7" stroke-width="1"/>
<text x="1903" y="1065" font-size="10" font-weight="800" fill="#475569" text-anchor="middle">keterangan</text>
<text x="1930" y="1066" font-size="15" font-weight="500" fill="#243142" text-anchor="start"></text>
<filter id="shadow-arsip_surat" x="-20%" y="-20%" width="140%" height="140%"><feDropShadow dx="0" dy="8" stdDeviation="8" flood-color="#1e293b" flood-opacity="0.12"/></filter>
<rect x="1870" y="1090" width="300" height="192" rx="16" fill="#ffffff" stroke="#cdd6e3" stroke-width="1.4"/>
<rect x="1870" y="1090" width="300" height="54" rx="16" fill="#ca8a04"/>
<path d="M1870 1128 H2170 V1144 H1870 Z" fill="#ca8a04"/>
<text x="1888" y="1125" font-size="21" font-weight="800" fill="#ffffff" text-anchor="start">arsip_surat</text>
<rect x="1886" y="1150" width="34" height="20" rx="10" fill="#fee2e2" stroke="#fee2e2" stroke-width="1"/>
<text x="1903" y="1165" font-size="10" font-weight="800" fill="#991b1b" text-anchor="middle">PK</text>
<text x="1930" y="1166" font-size="15" font-weight="500" fill="#243142" text-anchor="start">id_arsip</text>
<rect x="1886" y="1180" width="34" height="20" rx="10" fill="#dcfce7" stroke="#dcfce7" stroke-width="1"/>
<text x="1903" y="1195" font-size="10" font-weight="800" fill="#166534" text-anchor="middle">FK</text>
<text x="1930" y="1196" font-size="15" font-weight="500" fill="#243142" text-anchor="start">id_pengajuan</text>
<rect x="1886" y="1210" width="34" height="20" rx="10" fill="#dcfce7" stroke="#dcfce7" stroke-width="1"/>
<text x="1903" y="1225" font-size="10" font-weight="800" fill="#166534" text-anchor="middle">FK</text>
<text x="1930" y="1226" font-size="15" font-weight="500" fill="#243142" text-anchor="start">arsiparis_user_id</text>
<rect x="1886" y="1240" width="34" height="20" rx="10" fill="#eef2f7" stroke="#eef2f7" stroke-width="1"/>
<text x="1903" y="1255" font-size="10" font-weight="800" fill="#475569" text-anchor="middle">tgl_arsip</text>
<text x="1930" y="1256" font-size="15" font-weight="500" fill="#243142" text-anchor="start"></text>
<path d="M 225 311 C 233.4 311, 236.6 631, 245 631" fill="none" stroke="#2563eb" stroke-width="2.6" stroke-linecap="round" />
<rect x="206" y="454" width="58" height="30" rx="15" fill="#ffffff" stroke="#2563eb" stroke-width="1.4"/>
<text x="235" y="475" font-size="13" font-weight="800" fill="#2563eb" text-anchor="middle">1:N</text>
<path d="M 245 631 C 245 631, 245 961, 245 961" fill="none" stroke="#0ea5e9" stroke-width="2.6" stroke-linecap="round" />
<rect x="216" y="779" width="58" height="30" rx="15" fill="#ffffff" stroke="#0ea5e9" stroke-width="1.4"/>
<text x="245" y="800" font-size="13" font-weight="800" fill="#0ea5e9" text-anchor="middle">1:N</text>
<path d="M 245 631 C 245 631, 245 1176, 245 1176" fill="none" stroke="#0ea5e9" stroke-width="2.6" stroke-linecap="round" />
<rect x="216" y="886.5" width="58" height="30" rx="15" fill="#ffffff" stroke="#0ea5e9" stroke-width="1.4"/>
<text x="245" y="907.5" font-size="13" font-weight="800" fill="#0ea5e9" text-anchor="middle">1:N</text>
<path d="M 245 631 C 480.2 631, 569.8 826, 805 826" fill="none" stroke="#2563eb" stroke-width="2.6" stroke-linecap="round" />
<rect x="489" y="711.5" width="72" height="30" rx="15" fill="#ffffff" stroke="#2563eb" stroke-width="1.4"/>
<text x="525" y="732.5" font-size="13" font-weight="800" fill="#2563eb" text-anchor="middle">1:0..1</text>
<path d="M 245 631 C 696.5 631, 868.5 576, 1320 576" fill="none" stroke="#f97316" stroke-width="2.6" stroke-linecap="round" />
<rect x="746.5" y="586.5" width="72" height="30" rx="15" fill="#ffffff" stroke="#f97316" stroke-width="1.4"/>
<text x="782.5" y="607.5" font-size="13" font-weight="800" fill="#f97316" text-anchor="middle">1:0..1</text>
<path d="M 245 631 C 865 631, 1045 631, 1665 631" fill="none" stroke="#a855f7" stroke-width="2.6" stroke-linecap="round" />
<rect x="926" y="614" width="58" height="30" rx="15" fill="#ffffff" stroke="#a855f7" stroke-width="1.4"/>
<text x="955" y="635" font-size="13" font-weight="800" fill="#a855f7" text-anchor="middle">1:N</text>
<path d="M 790 326 C 792.1 326, 792.9 561, 795 561" fill="none" stroke="#16a34a" stroke-width="2.6" stroke-linecap="round" />
<rect x="763.5" y="426.5" width="58" height="30" rx="15" fill="#ffffff" stroke="#16a34a" stroke-width="1.4"/>
<text x="792.5" y="447.5" font-size="13" font-weight="800" fill="#16a34a" text-anchor="middle">1:N</text>
<path d="M 795 561 C 799.2 561, 800.8 826, 805 826" fill="none" stroke="#16a34a" stroke-width="2.6" stroke-linecap="round" />
<rect x="771" y="676.5" width="58" height="30" rx="15" fill="#ffffff" stroke="#16a34a" stroke-width="1.4"/>
<text x="800" y="697.5" font-size="13" font-weight="800" fill="#16a34a" text-anchor="middle">1:N</text>
<path d="M 805 826 C 1015 826, 1095 966, 1305 966" fill="none" stroke="#dc2626" stroke-width="2.6" stroke-linecap="round" />
<rect x="1026" y="879" width="58" height="30" rx="15" fill="#ffffff" stroke="#dc2626" stroke-width="1.4"/>
<text x="1055" y="900" font-size="13" font-weight="800" fill="#dc2626" text-anchor="middle">1:N</text>
<path d="M 1680 356 C 1522.5 356, 1462.5 966, 1305 966" fill="none" stroke="#f59e0b" stroke-width="2.6" stroke-linecap="round" />
<rect x="1463.5" y="644" width="58" height="30" rx="15" fill="#ffffff" stroke="#f59e0b" stroke-width="1.4"/>
<text x="1492.5" y="665" font-size="13" font-weight="800" fill="#f59e0b" text-anchor="middle">1:N</text>
<path d="M 1665 631 C 1513.8 631, 1456.2 966, 1305 966" fill="none" stroke="#a855f7" stroke-width="2.6" stroke-linecap="round" />
<rect x="1456" y="781.5" width="58" height="30" rx="15" fill="#ffffff" stroke="#a855f7" stroke-width="1.4"/>
<text x="1485" y="802.5" font-size="13" font-weight="800" fill="#a855f7" text-anchor="middle">1:N</text>
<path d="M 1305 966 C 1095 966, 1015 1041, 805 1041" fill="none" stroke="#64748b" stroke-width="2.6" stroke-linecap="round" />
<rect x="1026" y="986.5" width="58" height="30" rx="15" fill="#ffffff" stroke="#64748b" stroke-width="1.4"/>
<text x="1055" y="1007.5" font-size="13" font-weight="800" fill="#64748b" text-anchor="middle">1:N</text>
<path d="M 1305 966 C 1460.4 966, 1519.6 971, 1675 971" fill="none" stroke="#ca8a04" stroke-width="2.6" stroke-linecap="round" />
<rect x="1461" y="951.5" width="58" height="30" rx="15" fill="#ffffff" stroke="#ca8a04" stroke-width="1.4"/>
<text x="1490" y="972.5" font-size="13" font-weight="800" fill="#ca8a04" text-anchor="middle">1:N</text>
<path d="M 1305 966 C 1466.7 966, 1528.3 1181, 1690 1181" fill="none" stroke="#ca8a04" stroke-width="2.6" stroke-linecap="round" />
<rect x="1468.5" y="1056.5" width="58" height="30" rx="15" fill="#ffffff" stroke="#ca8a04" stroke-width="1.4"/>
<text x="1497.5" y="1077.5" font-size="13" font-weight="800" fill="#ca8a04" text-anchor="middle">1:N</text>
<path d="M 1305 966 C 1605.3 966, 1719.7 966, 2020 966" fill="none" stroke="#ca8a04" stroke-width="2.6" stroke-linecap="round" />
<rect x="1633.5" y="949" width="58" height="30" rx="15" fill="#ffffff" stroke="#ca8a04" stroke-width="1.4"/>
<text x="1662.5" y="970" font-size="13" font-weight="800" fill="#ca8a04" text-anchor="middle">1:N</text>
<path d="M 1305 966 C 1605.3 966, 1719.7 1186, 2020 1186" fill="none" stroke="#ca8a04" stroke-width="2.6" stroke-linecap="round" />
<rect x="1633.5" y="1059" width="58" height="30" rx="15" fill="#ffffff" stroke="#ca8a04" stroke-width="1.4"/>
<text x="1662.5" y="1080" font-size="13" font-weight="800" fill="#ca8a04" text-anchor="middle">1:N</text>
<path d="M 1310 326 C 1314.2 326, 1315.8 576, 1320 576" fill="none" stroke="#f97316" stroke-width="2.6" stroke-linecap="round" />
<rect x="1286" y="434" width="58" height="30" rx="15" fill="#ffffff" stroke="#f97316" stroke-width="1.4"/>
<text x="1315" y="455" font-size="13" font-weight="800" fill="#f97316" text-anchor="middle">1:N</text>
<path d="M 1320 576 C 1475.4 576, 1534.6 1181, 1690 1181" fill="none" stroke="#f97316" stroke-width="2.6" stroke-linecap="round" />
<rect x="1476" y="861.5" width="58" height="30" rx="15" fill="#ffffff" stroke="#f97316" stroke-width="1.4"/>
<text x="1505" y="882.5" font-size="13" font-weight="800" fill="#f97316" text-anchor="middle">1:N</text>
<path d="M 245 631 C 870 631, 1050 971, 1675 971" fill="none" stroke="#64748b" stroke-width="2.6" stroke-linecap="round" stroke-dasharray="7 7"/>
<rect x="928" y="784" width="64" height="30" rx="15" fill="#ffffff" stroke="#64748b" stroke-width="1.4"/>
<text x="960" y="805" font-size="13" font-weight="800" fill="#64748b" text-anchor="middle">staff</text>
<path d="M 245 631 C 1042.5 631, 1222.5 966, 2020 966" fill="none" stroke="#64748b" stroke-width="2.6" stroke-linecap="round" stroke-dasharray="7 7"/>
<rect x="1103.5" y="781.5" width="58" height="30" rx="15" fill="#ffffff" stroke="#64748b" stroke-width="1.4"/>
<text x="1132.5" y="802.5" font-size="13" font-weight="800" fill="#64748b" text-anchor="middle">ubah</text>
<path d="M 245 631 C 1042.5 631, 1222.5 1186, 2020 1186" fill="none" stroke="#64748b" stroke-width="2.6" stroke-linecap="round" stroke-dasharray="7 7"/>
<rect x="1100.5" y="891.5" width="64" height="30" rx="15" fill="#ffffff" stroke="#64748b" stroke-width="1.4"/>
<text x="1132.5" y="912.5" font-size="13" font-weight="800" fill="#64748b" text-anchor="middle">arsip</text>
<rect x="1200" y="1320" width="610" height="48" rx="24" fill="#111827" stroke="#111827" stroke-width="1"/>
<text x="1230" y="1351" font-size="16" font-weight="700" fill="#fff" text-anchor="start">Mahasiswa ajukan surat</text>
<text x="1435" y="1351" font-size="18" font-weight="900" fill="#facc15" text-anchor="start">-&gt;</text>
<text x="1470" y="1351" font-size="16" font-weight="700" fill="#fff" text-anchor="start">Validasi</text>
<text x="1570" y="1351" font-size="18" font-weight="900" fill="#facc15" text-anchor="start">-&gt;</text>
<text x="1605" y="1351" font-size="16" font-weight="700" fill="#fff" text-anchor="start">Persetujuan</text>
<text x="1718" y="1351" font-size="18" font-weight="900" fill="#facc15" text-anchor="start">-&gt;</text>
<text x="1750" y="1351" font-size="16" font-weight="700" fill="#fff" text-anchor="start">Arsip</text>
<rect x="80" y="1290" width="570" height="62" rx="18" fill="#ffffffcc" stroke="#d7dde8" stroke-width="1.4"/>
<rect x="110" y="1310" width="38" height="20" rx="10" fill="#fee2e2" stroke="#fee2e2" stroke-width="1.5"/>
<text x="129" y="1324" font-size="11" font-weight="800" fill="#991b1b" text-anchor="middle">PK</text>
<text x="160" y="1325" font-size="15" font-weight="600" fill="#334155" text-anchor="start">Primary key</text>
<rect x="300" y="1310" width="38" height="20" rx="10" fill="#dcfce7" stroke="#dcfce7" stroke-width="1.5"/>
<text x="319" y="1324" font-size="11" font-weight="800" fill="#166534" text-anchor="middle">FK</text>
<text x="350" y="1325" font-size="15" font-weight="600" fill="#334155" text-anchor="start">Foreign key</text>
<text x="500" y="1325" font-size="15" font-weight="600" fill="#334155" text-anchor="start">Garis putus-putus = peran user pada workflow</text>
</svg>