<svg xmlns="http://www.w3.org/2000/svg" width="2100" height="1180" viewBox="0 0 2100 1180">
<defs><linearGradient id="bg" x1="0" y1="0" x2="1" y2="1"><stop offset="0" stop-color="#f8fbff"/><stop offset="1" stop-color="#fffdf4"/></linearGradient></defs><rect width="100%" height="100%" fill="url(#bg)"/>
<text x="70" y="78" font-family="Inter,Arial,sans-serif" font-size="42" font-weight="900" fill="#111827" text-anchor="start">ERD Sistem Pengajuan Surat</text>
<text x="70" y="112" font-family="Inter,Arial,sans-serif" font-size="18" font-weight="500" fill="#64748b" text-anchor="start">Visual kreatif ringkas: domain data, entitas inti, dan relasi utama.</text>
<rect x="55" y="155" width="405" height="900" rx="22" fill="#edf5ff" stroke="#d5ddec" stroke-width="1.2"/>
<text x="79" y="193" font-family="Inter,Arial,sans-serif" font-size="24" font-weight="800" fill="#26313f" text-anchor="start">Akun &amp; Aktivitas</text>
<rect x="500" y="155" width="405" height="900" rx="22" fill="#eefbf3" stroke="#d5ddec" stroke-width="1.2"/>
<text x="524" y="193" font-family="Inter,Arial,sans-serif" font-size="24" font-weight="800" fill="#26313f" text-anchor="start">Akademik</text>
<rect x="945" y="155" width="405" height="900" rx="22" fill="#fff7ed" stroke="#d5ddec" stroke-width="1.2"/>
<text x="969" y="193" font-family="Inter,Arial,sans-serif" font-size="24" font-weight="800" fill="#26313f" text-anchor="start">Pengajuan Surat</text>
<rect x="1390" y="155" width="650" height="900" rx="22" fill="#fffbea" stroke="#d5ddec" stroke-width="1.2"/>
<text x="1414" y="193" font-family="Inter,Arial,sans-serif" font-size="24" font-weight="800" fill="#26313f" text-anchor="start">Workflow &amp; Arsip</text>
<rect x="95" y="235" width="270" height="122" rx="14" fill="#fff" stroke="#ccd6e4" stroke-width="1.4"/>
<rect x="95" y="235" width="270" height="50" rx="14" fill="#2563eb"/><path d="M95 271H365V285H95Z" fill="#2563eb"/>
<text x="113" y="267" font-family="Inter,Arial,sans-serif" font-size="20" font-weight="800" fill="#fff" text-anchor="start">hak_akses</text>
<rect x="111" y="291" width="34" height="19" rx="10" fill="#fee2e2" stroke="#fee2e2" stroke-width="1"/>
<text x="128" y="305" font-family="Inter,Arial,sans-serif" font-size="10" font-weight="800" fill="#991b1b" text-anchor="middle">PK</text>
<text x="155" y="306" font-family="Inter,Arial,sans-serif" font-size="14" font-weight="520" fill="#243142" text-anchor="start">id_hak_akses</text>
<rect x="111" y="318" width="34" height="19" rx="10" fill="#eef2f7" stroke="#eef2f7" stroke-width="1"/>
<text x="128" y="332" font-family="Inter,Arial,sans-serif" font-size="10" font-weight="800" fill="#475569" text-anchor="middle">UK</text>
<text x="155" y="333" font-family="Inter,Arial,sans-serif" font-size="14" font-weight="520" fill="#243142" text-anchor="start">nama_hak_akses</text>
<rect x="95" y="430" width="310" height="230" rx="14" fill="#fff" stroke="#ccd6e4" stroke-width="1.4"/>
<rect x="95" y="430" width="310" height="50" rx="14" fill="#2563eb"/><path d="M95 466H405V480H95Z" fill="#2563eb"/>
<text x="113" y="462" font-family="Inter,Arial,sans-serif" font-size="20" font-weight="800" fill="#fff" text-anchor="start">users</text>
<rect x="111" y="486" width="34" height="19" rx="10" fill="#fee2e2" stroke="#fee2e2" stroke-width="1"/>
<text x="128" y="500" font-family="Inter,Arial,sans-serif" font-size="10" font-weight="800" fill="#991b1b" text-anchor="middle">PK</text>
<text x="155" y="501" font-family="Inter,Arial,sans-serif" font-size="14" font-weight="520" fill="#243142" text-anchor="start">id_user</text>
<rect x="111" y="513" width="34" height="19" rx="10" fill="#dcfce7" stroke="#dcfce7" stroke-width="1"/>
<text x="128" y="527" font-family="Inter,Arial,sans-serif" font-size="10" font-weight="800" fill="#166534" text-anchor="middle">FK</text>
<text x="155" y="528" font-family="Inter,Arial,sans-serif" font-size="14" font-weight="520" fill="#243142" text-anchor="start">id_hak_akses</text>
<rect x="111" y="540" width="34" height="19" rx="10" fill="#eef2f7" stroke="#eef2f7" stroke-width="1"/>
<text x="128" y="554" font-family="Inter,Arial,sans-serif" font-size="10" font-weight="800" fill="#475569" text-anchor="middle">UK</text>
<text x="155" y="555" font-family="Inter,Arial,sans-serif" font-size="14" font-weight="520" fill="#243142" text-anchor="start">username</text>
<rect x="111" y="567" width="34" height="19" rx="10" fill="#eef2f7" stroke="#eef2f7" stroke-width="1"/>
<text x="128" y="581" font-family="Inter,Arial,sans-serif" font-size="10" font-weight="800" fill="#475569" text-anchor="middle">UK</text>
<text x="155" y="582" font-family="Inter,Arial,sans-serif" font-size="14" font-weight="520" fill="#243142" text-anchor="start">email</text>
<rect x="111" y="594" width="34" height="19" rx="10" fill="#eef2f7" stroke="#eef2f7" stroke-width="1"/>
<text x="128" y="608" font-family="Inter,Arial,sans-serif" font-size="10" font-weight="800" fill="#475569" text-anchor="middle">nama_lengkap</text>
<text x="155" y="609" font-family="Inter,Arial,sans-serif" font-size="14" font-weight="520" fill="#243142" text-anchor="start"></text>
<rect x="111" y="621" width="34" height="19" rx="10" fill="#eef2f7" stroke="#eef2f7" stroke-width="1"/>
<text x="128" y="635" font-family="Inter,Arial,sans-serif" font-size="10" font-weight="800" fill="#475569" text-anchor="middle">status_aktif</text>
<text x="155" y="636" font-family="Inter,Arial,sans-serif" font-size="14" font-weight="520" fill="#243142" text-anchor="start"></text>
<rect x="95" y="705" width="310" height="203" rx="14" fill="#fff" stroke="#ccd6e4" stroke-width="1.4"/>
<rect x="95" y="705" width="310" height="50" rx="14" fill="#0ea5e9"/><path d="M95 741H405V755H95Z" fill="#0ea5e9"/>
<text x="113" y="737" font-family="Inter,Arial,sans-serif" font-size="20" font-weight="800" fill="#fff" text-anchor="start">notifikasi</text>
<rect x="111" y="761" width="34" height="19" rx="10" fill="#fee2e2" stroke="#fee2e2" stroke-width="1"/>
<text x="128" y="775" font-family="Inter,Arial,sans-serif" font-size="10" font-weight="800" fill="#991b1b" text-anchor="middle">PK</text>
<text x="155" y="776" font-family="Inter,Arial,sans-serif" font-size="14" font-weight="520" fill="#243142" text-anchor="start">id_notifikasi</text>
<rect x="111" y="788" width="34" height="19" rx="10" fill="#dcfce7" stroke="#dcfce7" stroke-width="1"/>
<text x="128" y="802" font-family="Inter,Arial,sans-serif" font-size="10" font-weight="800" fill="#166534" text-anchor="middle">FK</text>
<text x="155" y="803" font-family="Inter,Arial,sans-serif" font-size="14" font-weight="520" fill="#243142" text-anchor="start">id_user_penerima</text>
<rect x="111" y="815" width="34" height="19" rx="10" fill="#eef2f7" stroke="#eef2f7" stroke-width="1"/>
<text x="128" y="829" font-family="Inter,Arial,sans-serif" font-size="10" font-weight="800" fill="#475569" text-anchor="middle">judul</text>
<text x="155" y="830" font-family="Inter,Arial,sans-serif" font-size="14" font-weight="520" fill="#243142" text-anchor="start"></text>
<rect x="111" y="842" width="34" height="19" rx="10" fill="#eef2f7" stroke="#eef2f7" stroke-width="1"/>
<text x="128" y="856" font-family="Inter,Arial,sans-serif" font-size="10" font-weight="800" fill="#475569" text-anchor="middle">pesan</text>
<text x="155" y="857" font-family="Inter,Arial,sans-serif" font-size="14" font-weight="520" fill="#243142" text-anchor="start"></text>
<rect x="111" y="869" width="34" height="19" rx="10" fill="#eef2f7" stroke="#eef2f7" stroke-width="1"/>
<text x="128" y="883" font-family="Inter,Arial,sans-serif" font-size="10" font-weight="800" fill="#475569" text-anchor="middle">is_read</text>
<text x="155" y="884" font-family="Inter,Arial,sans-serif" font-size="14" font-weight="520" fill="#243142" text-anchor="start"></text>
<rect x="95" y="905" width="310" height="203" rx="14" fill="#fff" stroke="#ccd6e4" stroke-width="1.4"/>
<rect x="95" y="905" width="310" height="50" rx="14" fill="#0ea5e9"/><path d="M95 941H405V955H95Z" fill="#0ea5e9"/>
<text x="113" y="937" font-family="Inter,Arial,sans-serif" font-size="20" font-weight="800" fill="#fff" text-anchor="start">log_aktivitas</text>
<rect x="111" y="961" width="34" height="19" rx="10" fill="#fee2e2" stroke="#fee2e2" stroke-width="1"/>
<text x="128" y="975" font-family="Inter,Arial,sans-serif" font-size="10" font-weight="800" fill="#991b1b" text-anchor="middle">PK</text>
<text x="155" y="976" font-family="Inter,Arial,sans-serif" font-size="14" font-weight="520" fill="#243142" text-anchor="start">id_log</text>
<rect x="111" y="988" width="34" height="19" rx="10" fill="#dcfce7" stroke="#dcfce7" stroke-width="1"/>
<text x="128" y="1002" font-family="Inter,Arial,sans-serif" font-size="10" font-weight="800" fill="#166534" text-anchor="middle">FK</text>
<text x="155" y="1003" font-family="Inter,Arial,sans-serif" font-size="14" font-weight="520" fill="#243142" text-anchor="start">id_user</text>
<rect x="111" y="1015" width="34" height="19" rx="10" fill="#eef2f7" stroke="#eef2f7" stroke-width="1"/>
<text x="128" y="1029" font-family="Inter,Arial,sans-serif" font-size="10" font-weight="800" fill="#475569" text-anchor="middle">waktu</text>
<text x="155" y="1030" font-family="Inter,Arial,sans-serif" font-size="14" font-weight="520" fill="#243142" text-anchor="start"></text>
<rect x="111" y="1042" width="34" height="19" rx="10" fill="#eef2f7" stroke="#eef2f7" stroke-width="1"/>
<text x="128" y="1056" font-family="Inter,Arial,sans-serif" font-size="10" font-weight="800" fill="#475569" text-anchor="middle">tipe_aktivitas</text>
<text x="155" y="1057" font-family="Inter,Arial,sans-serif" font-size="14" font-weight="520" fill="#243142" text-anchor="start"></text>
<rect x="111" y="1069" width="34" height="19" rx="10" fill="#eef2f7" stroke="#eef2f7" stroke-width="1"/>
<text x="128" y="1083" font-family="Inter,Arial,sans-serif" font-size="10" font-weight="800" fill="#475569" text-anchor="middle">deskripsi</text>
<text x="155" y="1084" font-family="Inter,Arial,sans-serif" font-size="14" font-weight="520" fill="#243142" text-anchor="start"></text>
<rect x="540" y="235" width="290" height="149" rx="14" fill="#fff" stroke="#ccd6e4" stroke-width="1.4"/>
<rect x="540" y="235" width="290" height="50" rx="14" fill="#16a34a"/><path d="M540 271H830V285H540Z" fill="#16a34a"/>
<text x="558" y="267" font-family="Inter,Arial,sans-serif" font-size="20" font-weight="800" fill="#fff" text-anchor="start">fakultas</text>
<rect x="556" y="291" width="34" height="19" rx="10" fill="#fee2e2" stroke="#fee2e2" stroke-width="1"/>
<text x="573" y="305" font-family="Inter,Arial,sans-serif" font-size="10" font-weight="800" fill="#991b1b" text-anchor="middle">PK</text>
<text x="600" y="306" font-family="Inter,Arial,sans-serif" font-size="14" font-weight="520" fill="#243142" text-anchor="start">id_fakultas</text>
<rect x="556" y="318" width="34" height="19" rx="10" fill="#eef2f7" stroke="#eef2f7" stroke-width="1"/>
<text x="573" y="332" font-family="Inter,Arial,sans-serif" font-size="10" font-weight="800" fill="#475569" text-anchor="middle">nama_fakultas</text>
<text x="600" y="333" font-family="Inter,Arial,sans-serif" font-size="14" font-weight="520" fill="#243142" text-anchor="start"></text>
<rect x="556" y="345" width="34" height="19" rx="10" fill="#eef2f7" stroke="#eef2f7" stroke-width="1"/>
<text x="573" y="359" font-family="Inter,Arial,sans-serif" font-size="10" font-weight="800" fill="#475569" text-anchor="middle">kode_fakultas</text>
<text x="600" y="360" font-family="Inter,Arial,sans-serif" font-size="14" font-weight="520" fill="#243142" text-anchor="start"></text>
<rect x="540" y="445" width="300" height="176" rx="14" fill="#fff" stroke="#ccd6e4" stroke-width="1.4"/>
<rect x="540" y="445" width="300" height="50" rx="14" fill="#16a34a"/><path d="M540 481H840V495H540Z" fill="#16a34a"/>
<text x="558" y="477" font-family="Inter,Arial,sans-serif" font-size="20" font-weight="800" fill="#fff" text-anchor="start">program_studi</text>
<rect x="556" y="501" width="34" height="19" rx="10" fill="#fee2e2" stroke="#fee2e2" stroke-width="1"/>
<text x="573" y="515" font-family="Inter,Arial,sans-serif" font-size="10" font-weight="800" fill="#991b1b" text-anchor="middle">PK</text>
<text x="600" y="516" font-family="Inter,Arial,sans-serif" font-size="14" font-weight="520" fill="#243142" text-anchor="start">id_prodi</text>
<rect x="556" y="528" width="34" height="19" rx="10" fill="#dcfce7" stroke="#dcfce7" stroke-width="1"/>
<text x="573" y="542" font-family="Inter,Arial,sans-serif" font-size="10" font-weight="800" fill="#166534" text-anchor="middle">FK</text>
<text x="600" y="543" font-family="Inter,Arial,sans-serif" font-size="14" font-weight="520" fill="#243142" text-anchor="start">id_fakultas</text>
<rect x="556" y="555" width="34" height="19" rx="10" fill="#eef2f7" stroke="#eef2f7" stroke-width="1"/>
<text x="573" y="569" font-family="Inter,Arial,sans-serif" font-size="10" font-weight="800" fill="#475569" text-anchor="middle">UK</text>
<text x="600" y="570" font-family="Inter,Arial,sans-serif" font-size="14" font-weight="520" fill="#243142" text-anchor="start">kode_prodi</text>
<rect x="556" y="582" width="34" height="19" rx="10" fill="#eef2f7" stroke="#eef2f7" stroke-width="1"/>
<text x="573" y="596" font-family="Inter,Arial,sans-serif" font-size="10" font-weight="800" fill="#475569" text-anchor="middle">nama_prodi</text>
<text x="600" y="597" font-family="Inter,Arial,sans-serif" font-size="14" font-weight="520" fill="#243142" text-anchor="start"></text>
<rect x="540" y="695" width="315" height="257" rx="14" fill="#fff" stroke="#ccd6e4" stroke-width="1.4"/>
<rect x="540" y="695" width="315" height="50" rx="14" fill="#16a34a"/><path d="M540 731H855V745H540Z" fill="#16a34a"/>
<text x="558" y="727" font-family="Inter,Arial,sans-serif" font-size="20" font-weight="800" fill="#fff" text-anchor="start">mahasiswa</text>
<rect x="556" y="751" width="34" height="19" rx="10" fill="#fee2e2" stroke="#fee2e2" stroke-width="1"/>
<text x="573" y="765" font-family="Inter,Arial,sans-serif" font-size="10" font-weight="800" fill="#991b1b" text-anchor="middle">PK</text>
<text x="600" y="766" font-family="Inter,Arial,sans-serif" font-size="14" font-weight="520" fill="#243142" text-anchor="start">id_mahasiswa</text>
<rect x="556" y="778" width="34" height="19" rx="10" fill="#dcfce7" stroke="#dcfce7" stroke-width="1"/>
<text x="573" y="792" font-family="Inter,Arial,sans-serif" font-size="10" font-weight="800" fill="#166534" text-anchor="middle">FK</text>
<text x="600" y="793" font-family="Inter,Arial,sans-serif" font-size="14" font-weight="520" fill="#243142" text-anchor="start">id_user</text>
<rect x="556" y="805" width="34" height="19" rx="10" fill="#dcfce7" stroke="#dcfce7" stroke-width="1"/>
<text x="573" y="819" font-family="Inter,Arial,sans-serif" font-size="10" font-weight="800" fill="#166534" text-anchor="middle">FK</text>
<text x="600" y="820" font-family="Inter,Arial,sans-serif" font-size="14" font-weight="520" fill="#243142" text-anchor="start">id_prodi</text>
<rect x="556" y="832" width="34" height="19" rx="10" fill="#eef2f7" stroke="#eef2f7" stroke-width="1"/>
<text x="573" y="846" font-family="Inter,Arial,sans-serif" font-size="10" font-weight="800" fill="#475569" text-anchor="middle">UK</text>
<text x="600" y="847" font-family="Inter,Arial,sans-serif" font-size="14" font-weight="520" fill="#243142" text-anchor="start">nim</text>
<rect x="556" y="859" width="34" height="19" rx="10" fill="#eef2f7" stroke="#eef2f7" stroke-width="1"/>
<text x="573" y="873" font-family="Inter,Arial,sans-serif" font-size="10" font-weight="800" fill="#475569" text-anchor="middle">angkatan</text>
<text x="600" y="874" font-family="Inter,Arial,sans-serif" font-size="14" font-weight="520" fill="#243142" text-anchor="start"></text>
<rect x="556" y="886" width="34" height="19" rx="10" fill="#eef2f7" stroke="#eef2f7" stroke-width="1"/>
<text x="573" y="900" font-family="Inter,Arial,sans-serif" font-size="10" font-weight="800" fill="#475569" text-anchor="middle">status_mahasiswa</text>
<text x="600" y="901" font-family="Inter,Arial,sans-serif" font-size="14" font-weight="520" fill="#243142" text-anchor="start"></text>
<rect x="556" y="913" width="34" height="19" rx="10" fill="#eef2f7" stroke="#eef2f7" stroke-width="1"/>
<text x="573" y="927" font-family="Inter,Arial,sans-serif" font-size="10" font-weight="800" fill="#475569" text-anchor="middle">ipk_terakhir</text>
<text x="600" y="928" font-family="Inter,Arial,sans-serif" font-size="14" font-weight="520" fill="#243142" text-anchor="start"></text>
<rect x="985" y="235" width="330" height="203" rx="14" fill="#fff" stroke="#ccd6e4" stroke-width="1.4"/>
<rect x="985" y="235" width="330" height="50" rx="14" fill="#f59e0b"/><path d="M985 271H1315V285H985Z" fill="#f59e0b"/>
<text x="1003" y="267" font-family="Inter,Arial,sans-serif" font-size="20" font-weight="800" fill="#fff" text-anchor="start">jenis_surat</text>
<rect x="1001" y="291" width="34" height="19" rx="10" fill="#fee2e2" stroke="#fee2e2" stroke-width="1"/>
<text x="1018" y="305" font-family="Inter,Arial,sans-serif" font-size="10" font-weight="800" fill="#991b1b" text-anchor="middle">PK</text>
<text x="1045" y="306" font-family="Inter,Arial,sans-serif" font-size="14" font-weight="520" fill="#243142" text-anchor="start">id_jenis_surat</text>
<rect x="1001" y="318" width="34" height="19" rx="10" fill="#eef2f7" stroke="#eef2f7" stroke-width="1"/>
<text x="1018" y="332" font-family="Inter,Arial,sans-serif" font-size="10" font-weight="800" fill="#475569" text-anchor="middle">nama_surat</text>
<text x="1045" y="333" font-family="Inter,Arial,sans-serif" font-size="14" font-weight="520" fill="#243142" text-anchor="start"></text>
<rect x="1001" y="345" width="34" height="19" rx="10" fill="#eef2f7" stroke="#eef2f7" stroke-width="1"/>
<text x="1018" y="359" font-family="Inter,Arial,sans-serif" font-size="10" font-weight="800" fill="#475569" text-anchor="middle">template_path</text>
<text x="1045" y="360" font-family="Inter,Arial,sans-serif" font-size="14" font-weight="520" fill="#243142" text-anchor="start"></text>
<rect x="1001" y="372" width="34" height="19" rx="10" fill="#eef2f7" stroke="#eef2f7" stroke-width="1"/>
<text x="1018" y="386" font-family="Inter,Arial,sans-serif" font-size="10" font-weight="800" fill="#475569" text-anchor="middle">pejabat_menandatangani</text>
<text x="1045" y="387" font-family="Inter,Arial,sans-serif" font-size="14" font-weight="520" fill="#243142" text-anchor="start"></text>
<rect x="1001" y="399" width="34" height="19" rx="10" fill="#eef2f7" stroke="#eef2f7" stroke-width="1"/>
<text x="1018" y="413" font-family="Inter,Arial,sans-serif" font-size="10" font-weight="800" fill="#475569" text-anchor="middle">perlu_validasi_dekan</text>
<text x="1045" y="414" font-family="Inter,Arial,sans-serif" font-size="14" font-weight="520" fill="#243142" text-anchor="start"></text>
<rect x="985" y="505" width="310" height="230" rx="14" fill="#fff" stroke="#ccd6e4" stroke-width="1.4"/>
<rect x="985" y="505" width="310" height="50" rx="14" fill="#a855f7"/><path d="M985 541H1295V555H985Z" fill="#a855f7"/>
<text x="1003" y="537" font-family="Inter,Arial,sans-serif" font-size="20" font-weight="800" fill="#fff" text-anchor="start">digital_signatures</text>
<rect x="1001" y="561" width="34" height="19" rx="10" fill="#fee2e2" stroke="#fee2e2" stroke-width="1"/>
<text x="1018" y="575" font-family="Inter,Arial,sans-serif" font-size="10" font-weight="800" fill="#991b1b" text-anchor="middle">PK</text>
<text x="1045" y="576" font-family="Inter,Arial,sans-serif" font-size="14" font-weight="520" fill="#243142" text-anchor="start">id</text>
<rect x="1001" y="588" width="34" height="19" rx="10" fill="#dcfce7" stroke="#dcfce7" stroke-width="1"/>
<text x="1018" y="602" font-family="Inter,Arial,sans-serif" font-size="10" font-weight="800" fill="#166534" text-anchor="middle">FK</text>
<text x="1045" y="603" font-family="Inter,Arial,sans-serif" font-size="14" font-weight="520" fill="#243142" text-anchor="start">user_id</text>
<rect x="1001" y="615" width="34" height="19" rx="10" fill="#eef2f7" stroke="#eef2f7" stroke-width="1"/>
<text x="1018" y="629" font-family="Inter,Arial,sans-serif" font-size="10" font-weight="800" fill="#475569" text-anchor="middle">name</text>
<text x="1045" y="630" font-family="Inter,Arial,sans-serif" font-size="14" font-weight="520" fill="#243142" text-anchor="start"></text>
<rect x="1001" y="642" width="34" height="19" rx="10" fill="#eef2f7" stroke="#eef2f7" stroke-width="1"/>
<text x="1018" y="656" font-family="Inter,Arial,sans-serif" font-size="10" font-weight="800" fill="#475569" text-anchor="middle">type</text>
<text x="1045" y="657" font-family="Inter,Arial,sans-serif" font-size="14" font-weight="520" fill="#243142" text-anchor="start"></text>
<rect x="1001" y="669" width="34" height="19" rx="10" fill="#eef2f7" stroke="#eef2f7" stroke-width="1"/>
<text x="1018" y="683" font-family="Inter,Arial,sans-serif" font-size="10" font-weight="800" fill="#475569" text-anchor="middle">path</text>
<text x="1045" y="684" font-family="Inter,Arial,sans-serif" font-size="14" font-weight="520" fill="#243142" text-anchor="start"></text>
<rect x="1001" y="696" width="34" height="19" rx="10" fill="#eef2f7" stroke="#eef2f7" stroke-width="1"/>
<text x="1018" y="710" font-family="Inter,Arial,sans-serif" font-size="10" font-weight="800" fill="#475569" text-anchor="middle">is_active</text>
<text x="1045" y="711" font-family="Inter,Arial,sans-serif" font-size="14" font-weight="520" fill="#243142" text-anchor="start"></text>
<rect x="985" y="775" width="340" height="284" rx="14" fill="#fff" stroke="#ccd6e4" stroke-width="1.4"/>
<rect x="985" y="775" width="340" height="50" rx="14" fill="#dc2626"/><path d="M985 811H1325V825H985Z" fill="#dc2626"/>
<text x="1003" y="807" font-family="Inter,Arial,sans-serif" font-size="20" font-weight="800" fill="#fff" text-anchor="start">pengajuan_surat</text>
<rect x="1001" y="831" width="34" height="19" rx="10" fill="#fee2e2" stroke="#fee2e2" stroke-width="1"/>
<text x="1018" y="845" font-family="Inter,Arial,sans-serif" font-size="10" font-weight="800" fill="#991b1b" text-anchor="middle">PK</text>
<text x="1045" y="846" font-family="Inter,Arial,sans-serif" font-size="14" font-weight="520" fill="#243142" text-anchor="start">id_pengajuan</text>
<rect x="1001" y="858" width="34" height="19" rx="10" fill="#dcfce7" stroke="#dcfce7" stroke-width="1"/>
<text x="1018" y="872" font-family="Inter,Arial,sans-serif" font-size="10" font-weight="800" fill="#166534" text-anchor="middle">FK</text>
<text x="1045" y="873" font-family="Inter,Arial,sans-serif" font-size="14" font-weight="520" fill="#243142" text-anchor="start">id_mahasiswa</text>
<rect x="1001" y="885" width="34" height="19" rx="10" fill="#dcfce7" stroke="#dcfce7" stroke-width="1"/>
<text x="1018" y="899" font-family="Inter,Arial,sans-serif" font-size="10" font-weight="800" fill="#166534" text-anchor="middle">FK</text>
<text x="1045" y="900" font-family="Inter,Arial,sans-serif" font-size="14" font-weight="520" fill="#243142" text-anchor="start">id_jenis_surat</text>
<rect x="1001" y="912" width="34" height="19" rx="10" fill="#dcfce7" stroke="#dcfce7" stroke-width="1"/>
<text x="1018" y="926" font-family="Inter,Arial,sans-serif" font-size="10" font-weight="800" fill="#166534" text-anchor="middle">FK</text>
<text x="1045" y="927" font-family="Inter,Arial,sans-serif" font-size="14" font-weight="520" fill="#243142" text-anchor="start">digital_signature_id</text>
<rect x="1001" y="939" width="34" height="19" rx="10" fill="#eef2f7" stroke="#eef2f7" stroke-width="1"/>
<text x="1018" y="953" font-family="Inter,Arial,sans-serif" font-size="10" font-weight="800" fill="#475569" text-anchor="middle">tgl_pengajuan</text>
<text x="1045" y="954" font-family="Inter,Arial,sans-serif" font-size="14" font-weight="520" fill="#243142" text-anchor="start"></text>
<rect x="1001" y="966" width="34" height="19" rx="10" fill="#eef2f7" stroke="#eef2f7" stroke-width="1"/>
<text x="1018" y="980" font-family="Inter,Arial,sans-serif" font-size="10" font-weight="800" fill="#475569" text-anchor="middle">status_saat_ini</text>
<text x="1045" y="981" font-family="Inter,Arial,sans-serif" font-size="14" font-weight="520" fill="#243142" text-anchor="start"></text>
<rect x="1001" y="993" width="34" height="19" rx="10" fill="#eef2f7" stroke="#eef2f7" stroke-width="1"/>
<text x="1018" y="1007" font-family="Inter,Arial,sans-serif" font-size="10" font-weight="800" fill="#475569" text-anchor="middle">nomor_surat_resmi</text>
<text x="1045" y="1008" font-family="Inter,Arial,sans-serif" font-size="14" font-weight="520" fill="#243142" text-anchor="start"></text>
<rect x="1001" y="1020" width="34" height="19" rx="10" fill="#eef2f7" stroke="#eef2f7" stroke-width="1"/>
<text x="1018" y="1034" font-family="Inter,Arial,sans-serif" font-size="10" font-weight="800" fill="#475569" text-anchor="middle">file_surat_content</text>
<text x="1045" y="1035" font-family="Inter,Arial,sans-serif" font-size="14" font-weight="520" fill="#243142" text-anchor="start"></text>
<rect x="1430" y="235" width="300" height="149" rx="14" fill="#fff" stroke="#ccd6e4" stroke-width="1.4"/>
<rect x="1430" y="235" width="300" height="50" rx="14" fill="#f97316"/><path d="M1430 271H1730V285H1430Z" fill="#f97316"/>
<text x="1448" y="267" font-family="Inter,Arial,sans-serif" font-size="20" font-weight="800" fill="#fff" text-anchor="start">jabatan</text>
<rect x="1446" y="291" width="34" height="19" rx="10" fill="#fee2e2" stroke="#fee2e2" stroke-width="1"/>
<text x="1463" y="305" font-family="Inter,Arial,sans-serif" font-size="10" font-weight="800" fill="#991b1b" text-anchor="middle">PK</text>
<text x="1490" y="306" font-family="Inter,Arial,sans-serif" font-size="14" font-weight="520" fill="#243142" text-anchor="start">id_jabatan</text>
<rect x="1446" y="318" width="34" height="19" rx="10" fill="#eef2f7" stroke="#eef2f7" stroke-width="1"/>
<text x="1463" y="332" font-family="Inter,Arial,sans-serif" font-size="10" font-weight="800" fill="#475569" text-anchor="middle">UK</text>
<text x="1490" y="333" font-family="Inter,Arial,sans-serif" font-size="14" font-weight="520" fill="#243142" text-anchor="start">nama_jabatan</text>
<rect x="1446" y="345" width="34" height="19" rx="10" fill="#eef2f7" stroke="#eef2f7" stroke-width="1"/>
<text x="1463" y="359" font-family="Inter,Arial,sans-serif" font-size="10" font-weight="800" fill="#475569" text-anchor="middle">UK</text>
<text x="1490" y="360" font-family="Inter,Arial,sans-serif" font-size="14" font-weight="520" fill="#243142" text-anchor="start">kode_jabatan</text>
<rect x="1430" y="455" width="310" height="203" rx="14" fill="#fff" stroke="#ccd6e4" stroke-width="1.4"/>
<rect x="1430" y="455" width="310" height="50" rx="14" fill="#f97316"/><path d="M1430 491H1740V505H1430Z" fill="#f97316"/>
<text x="1448" y="487" font-family="Inter,Arial,sans-serif" font-size="20" font-weight="800" fill="#fff" text-anchor="start">pejabat</text>
<rect x="1446" y="511" width="34" height="19" rx="10" fill="#fee2e2" stroke="#fee2e2" stroke-width="1"/>
<text x="1463" y="525" font-family="Inter,Arial,sans-serif" font-size="10" font-weight="800" fill="#991b1b" text-anchor="middle">PK</text>
<text x="1490" y="526" font-family="Inter,Arial,sans-serif" font-size="14" font-weight="520" fill="#243142" text-anchor="start">id_pejabat</text>
<rect x="1446" y="538" width="34" height="19" rx="10" fill="#dcfce7" stroke="#dcfce7" stroke-width="1"/>
<text x="1463" y="552" font-family="Inter,Arial,sans-serif" font-size="10" font-weight="800" fill="#166534" text-anchor="middle">FK</text>
<text x="1490" y="553" font-family="Inter,Arial,sans-serif" font-size="14" font-weight="520" fill="#243142" text-anchor="start">id_user</text>
<rect x="1446" y="565" width="34" height="19" rx="10" fill="#dcfce7" stroke="#dcfce7" stroke-width="1"/>
<text x="1463" y="579" font-family="Inter,Arial,sans-serif" font-size="10" font-weight="800" fill="#166534" text-anchor="middle">FK</text>
<text x="1490" y="580" font-family="Inter,Arial,sans-serif" font-size="14" font-weight="520" fill="#243142" text-anchor="start">id_jabatan</text>
<rect x="1446" y="592" width="34" height="19" rx="10" fill="#eef2f7" stroke="#eef2f7" stroke-width="1"/>
<text x="1463" y="606" font-family="Inter,Arial,sans-serif" font-size="10" font-weight="800" fill="#475569" text-anchor="middle">UK</text>
<text x="1490" y="607" font-family="Inter,Arial,sans-serif" font-size="14" font-weight="520" fill="#243142" text-anchor="start">nip</text>
<rect x="1446" y="619" width="34" height="19" rx="10" fill="#eef2f7" stroke="#eef2f7" stroke-width="1"/>
<text x="1463" y="633" font-family="Inter,Arial,sans-serif" font-size="10" font-weight="800" fill="#475569" text-anchor="middle">is_aktif_ttd</text>
<text x="1490" y="634" font-family="Inter,Arial,sans-serif" font-size="14" font-weight="520" fill="#243142" text-anchor="start"></text>
<rect x="1430" y="690" width="320" height="203" rx="14" fill="#fff" stroke="#ccd6e4" stroke-width="1.4"/>
<rect x="1430" y="690" width="320" height="50" rx="14" fill="#ca8a04"/><path d="M1430 726H1750V740H1430Z" fill="#ca8a04"/>
<text x="1448" y="722" font-family="Inter,Arial,sans-serif" font-size="20" font-weight="800" fill="#fff" text-anchor="start">validasi_staff</text>
<rect x="1446" y="746" width="34" height="19" rx="10" fill="#fee2e2" stroke="#fee2e2" stroke-width="1"/>
<text x="1463" y="760" font-family="Inter,Arial,sans-serif" font-size="10" font-weight="800" fill="#991b1b" text-anchor="middle">PK</text>
<text x="1490" y="761" font-family="Inter,Arial,sans-serif" font-size="14" font-weight="520" fill="#243142" text-anchor="start">id_validasi</text>
<rect x="1446" y="773" width="34" height="19" rx="10" fill="#dcfce7" stroke="#dcfce7" stroke-width="1"/>
<text x="1463" y="787" font-family="Inter,Arial,sans-serif" font-size="10" font-weight="800" fill="#166534" text-anchor="middle">FK</text>
<text x="1490" y="788" font-family="Inter,Arial,sans-serif" font-size="14" font-weight="520" fill="#243142" text-anchor="start">id_pengajuan</text>
<rect x="1446" y="800" width="34" height="19" rx="10" fill="#dcfce7" stroke="#dcfce7" stroke-width="1"/>
<text x="1463" y="814" font-family="Inter,Arial,sans-serif" font-size="10" font-weight="800" fill="#166534" text-anchor="middle">FK</text>
<text x="1490" y="815" font-family="Inter,Arial,sans-serif" font-size="14" font-weight="520" fill="#243142" text-anchor="start">id_user_staff</text>
<rect x="1446" y="827" width="34" height="19" rx="10" fill="#eef2f7" stroke="#eef2f7" stroke-width="1"/>
<text x="1463" y="841" font-family="Inter,Arial,sans-serif" font-size="10" font-weight="800" fill="#475569" text-anchor="middle">tgl_validasi</text>
<text x="1490" y="842" font-family="Inter,Arial,sans-serif" font-size="14" font-weight="520" fill="#243142" text-anchor="start"></text>
<rect x="1446" y="854" width="34" height="19" rx="10" fill="#eef2f7" stroke="#eef2f7" stroke-width="1"/>
<text x="1463" y="868" font-family="Inter,Arial,sans-serif" font-size="10" font-weight="800" fill="#475569" text-anchor="middle">status_validasi</text>
<text x="1490" y="869" font-family="Inter,Arial,sans-serif" font-size="14" font-weight="520" fill="#243142" text-anchor="start"></text>
<rect x="1430" y="910" width="340" height="203" rx="14" fill="#fff" stroke="#ccd6e4" stroke-width="1.4"/>
<rect x="1430" y="910" width="340" height="50" rx="14" fill="#ca8a04"/><path d="M1430 946H1770V960H1430Z" fill="#ca8a04"/>
<text x="1448" y="942" font-family="Inter,Arial,sans-serif" font-size="20" font-weight="800" fill="#fff" text-anchor="start">persetujuan_pejabat</text>
<rect x="1446" y="966" width="34" height="19" rx="10" fill="#fee2e2" stroke="#fee2e2" stroke-width="1"/>
<text x="1463" y="980" font-family="Inter,Arial,sans-serif" font-size="10" font-weight="800" fill="#991b1b" text-anchor="middle">PK</text>
<text x="1490" y="981" font-family="Inter,Arial,sans-serif" font-size="14" font-weight="520" fill="#243142" text-anchor="start">id_persetujuan</text>
<rect x="1446" y="993" width="34" height="19" rx="10" fill="#dcfce7" stroke="#dcfce7" stroke-width="1"/>
<text x="1463" y="1007" font-family="Inter,Arial,sans-serif" font-size="10" font-weight="800" fill="#166534" text-anchor="middle">FK</text>
<text x="1490" y="1008" font-family="Inter,Arial,sans-serif" font-size="14" font-weight="520" fill="#243142" text-anchor="start">id_pengajuan</text>
<rect x="1446" y="1020" width="34" height="19" rx="10" fill="#dcfce7" stroke="#dcfce7" stroke-width="1"/>
<text x="1463" y="1034" font-family="Inter,Arial,sans-serif" font-size="10" font-weight="800" fill="#166534" text-anchor="middle">FK</text>
<text x="1490" y="1035" font-family="Inter,Arial,sans-serif" font-size="14" font-weight="520" fill="#243142" text-anchor="start">id_pejabat</text>
<rect x="1446" y="1047" width="34" height="19" rx="10" fill="#eef2f7" stroke="#eef2f7" stroke-width="1"/>
<text x="1463" y="1061" font-family="Inter,Arial,sans-serif" font-size="10" font-weight="800" fill="#475569" text-anchor="middle">tgl_persetujuan</text>
<text x="1490" y="1062" font-family="Inter,Arial,sans-serif" font-size="14" font-weight="520" fill="#243142" text-anchor="start"></text>
<rect x="1446" y="1074" width="34" height="19" rx="10" fill="#eef2f7" stroke="#eef2f7" stroke-width="1"/>
<text x="1463" y="1088" font-family="Inter,Arial,sans-serif" font-size="10" font-weight="800" fill="#475569" text-anchor="middle">status_persetujuan</text>
<text x="1490" y="1089" font-family="Inter,Arial,sans-serif" font-size="14" font-weight="520" fill="#243142" text-anchor="start"></text>
<rect x="1665" y="690" width="320" height="203" rx="14" fill="#fff" stroke="#ccd6e4" stroke-width="1.4"/>
<rect x="1665" y="690" width="320" height="50" rx="14" fill="#ca8a04"/><path d="M1665 726H1985V740H1665Z" fill="#ca8a04"/>
<text x="1683" y="722" font-family="Inter,Arial,sans-serif" font-size="20" font-weight="800" fill="#fff" text-anchor="start">log_status_surat</text>
<rect x="1681" y="746" width="34" height="19" rx="10" fill="#fee2e2" stroke="#fee2e2" stroke-width="1"/>
<text x="1698" y="760" font-family="Inter,Arial,sans-serif" font-size="10" font-weight="800" fill="#991b1b" text-anchor="middle">PK</text>
<text x="1725" y="761" font-family="Inter,Arial,sans-serif" font-size="14" font-weight="520" fill="#243142" text-anchor="start">id_log_status</text>
<rect x="1681" y="773" width="34" height="19" rx="10" fill="#dcfce7" stroke="#dcfce7" stroke-width="1"/>
<text x="1698" y="787" font-family="Inter,Arial,sans-serif" font-size="10" font-weight="800" fill="#166534" text-anchor="middle">FK</text>
<text x="1725" y="788" font-family="Inter,Arial,sans-serif" font-size="14" font-weight="520" fill="#243142" text-anchor="start">id_pengajuan</text>
<rect x="1681" y="800" width="34" height="19" rx="10" fill="#dcfce7" stroke="#dcfce7" stroke-width="1"/>
<text x="1698" y="814" font-family="Inter,Arial,sans-serif" font-size="10" font-weight="800" fill="#166534" text-anchor="middle">FK</text>
<text x="1725" y="815" font-family="Inter,Arial,sans-serif" font-size="14" font-weight="520" fill="#243142" text-anchor="start">diubah_oleh_user</text>
<rect x="1681" y="827" width="34" height="19" rx="10" fill="#eef2f7" stroke="#eef2f7" stroke-width="1"/>
<text x="1698" y="841" font-family="Inter,Arial,sans-serif" font-size="10" font-weight="800" fill="#475569" text-anchor="middle">status_lama</text>
<text x="1725" y="842" font-family="Inter,Arial,sans-serif" font-size="14" font-weight="520" fill="#243142" text-anchor="start"></text>
<rect x="1681" y="854" width="34" height="19" rx="10" fill="#eef2f7" stroke="#eef2f7" stroke-width="1"/>
<text x="1698" y="868" font-family="Inter,Arial,sans-serif" font-size="10" font-weight="800" fill="#475569" text-anchor="middle">status_baru</text>
<text x="1725" y="869" font-family="Inter,Arial,sans-serif" font-size="14" font-weight="520" fill="#243142" text-anchor="start"></text>
<rect x="1665" y="910" width="300" height="176" rx="14" fill="#fff" stroke="#ccd6e4" stroke-width="1.4"/>
<rect x="1665" y="910" width="300" height="50" rx="14" fill="#ca8a04"/><path d="M1665 946H1965V960H1665Z" fill="#ca8a04"/>
<text x="1683" y="942" font-family="Inter,Arial,sans-serif" font-size="20" font-weight="800" fill="#fff" text-anchor="start">arsip_surat</text>
<rect x="1681" y="966" width="34" height="19" rx="10" fill="#fee2e2" stroke="#fee2e2" stroke-width="1"/>
<text x="1698" y="980" font-family="Inter,Arial,sans-serif" font-size="10" font-weight="800" fill="#991b1b" text-anchor="middle">PK</text>
<text x="1725" y="981" font-family="Inter,Arial,sans-serif" font-size="14" font-weight="520" fill="#243142" text-anchor="start">id_arsip</text>
<rect x="1681" y="993" width="34" height="19" rx="10" fill="#dcfce7" stroke="#dcfce7" stroke-width="1"/>
<text x="1698" y="1007" font-family="Inter,Arial,sans-serif" font-size="10" font-weight="800" fill="#166534" text-anchor="middle">FK</text>
<text x="1725" y="1008" font-family="Inter,Arial,sans-serif" font-size="14" font-weight="520" fill="#243142" text-anchor="start">id_pengajuan</text>
<rect x="1681" y="1020" width="34" height="19" rx="10" fill="#dcfce7" stroke="#dcfce7" stroke-width="1"/>
<text x="1698" y="1034" font-family="Inter,Arial,sans-serif" font-size="10" font-weight="800" fill="#166534" text-anchor="middle">FK</text>
<text x="1725" y="1035" font-family="Inter,Arial,sans-serif" font-size="14" font-weight="520" fill="#243142" text-anchor="start">arsiparis_user_id</text>
<rect x="1681" y="1047" width="34" height="19" rx="10" fill="#eef2f7" stroke="#eef2f7" stroke-width="1"/>
<text x="1698" y="1061" font-family="Inter,Arial,sans-serif" font-size="10" font-weight="800" fill="#475569" text-anchor="middle">tgl_arsip</text>
<text x="1725" y="1062" font-family="Inter,Arial,sans-serif" font-size="14" font-weight="520" fill="#243142" text-anchor="start"></text>
<path d="M230 296 C239 296,241 545,250 545" fill="none" stroke="#2563eb" stroke-width="2.5" stroke-linecap="round" />
<rect x="208" y="405.5" width="64" height="28" rx="14" fill="#fff" stroke="#2563eb" stroke-width="1.3"/>
<text x="240" y="424.5" font-family="Inter,Arial,sans-serif" font-size="13" font-weight="800" fill="#2563eb" text-anchor="middle">1:N</text>
<path d="M250 545 C250 545,250 806.5,250 806.5" fill="none" stroke="#0ea5e9" stroke-width="2.5" stroke-linecap="round" />
<rect x="218" y="660.75" width="64" height="28" rx="14" fill="#fff" stroke="#0ea5e9" stroke-width="1.3"/>
<text x="250" y="679.75" font-family="Inter,Arial,sans-serif" font-size="13" font-weight="800" fill="#0ea5e9" text-anchor="middle">1:N</text>
<path d="M250 545 C250 545,250 1006.5,250 1006.5" fill="none" stroke="#0ea5e9" stroke-width="2.5" stroke-linecap="round" />
<rect x="218" y="760.75" width="64" height="28" rx="14" fill="#fff" stroke="#0ea5e9" stroke-width="1.3"/>
<text x="250" y="779.75" font-family="Inter,Arial,sans-serif" font-size="13" font-weight="800" fill="#0ea5e9" text-anchor="middle">1:N</text>
<path d="M250 545 C451.375 545,496.125 823.5,697.5 823.5" fill="none" stroke="#2563eb" stroke-width="2.5" stroke-linecap="round" />
<rect x="441.75" y="669.25" width="64" height="28" rx="14" fill="#fff" stroke="#2563eb" stroke-width="1.3"/>
<text x="473.75" y="688.25" font-family="Inter,Arial,sans-serif" font-size="13" font-weight="800" fill="#2563eb" text-anchor="middle">1:0..1</text>
<path d="M685 309.5 C687.25 309.5,687.75 533,690 533" fill="none" stroke="#16a34a" stroke-width="2.5" stroke-linecap="round" />
<rect x="655.5" y="406.25" width="64" height="28" rx="14" fill="#fff" stroke="#16a34a" stroke-width="1.3"/>
<text x="687.5" y="425.25" font-family="Inter,Arial,sans-serif" font-size="13" font-weight="800" fill="#16a34a" text-anchor="middle">1:N</text>
<path d="M690 533 C693.375 533,694.125 823.5,697.5 823.5" fill="none" stroke="#16a34a" stroke-width="2.5" stroke-linecap="round" />
<rect x="661.75" y="663.25" width="64" height="28" rx="14" fill="#fff" stroke="#16a34a" stroke-width="1.3"/>
<text x="693.75" y="682.25" font-family="Inter,Arial,sans-serif" font-size="13" font-weight="800" fill="#16a34a" text-anchor="middle">1:N</text>
<path d="M697.5 823.5 C903.375 823.5,949.125 917,1155 917" fill="none" stroke="#dc2626" stroke-width="2.5" stroke-linecap="round" />
<rect x="894.25" y="855.25" width="64" height="28" rx="14" fill="#fff" stroke="#dc2626" stroke-width="1.3"/>
<text x="926.25" y="874.25" font-family="Inter,Arial,sans-serif" font-size="13" font-weight="800" fill="#dc2626" text-anchor="middle">1:N</text>
<path d="M1150 336.5 C1152.25 336.5,1152.75 917,1155 917" fill="none" stroke="#f59e0b" stroke-width="2.5" stroke-linecap="round" />
<rect x="1120.5" y="611.75" width="64" height="28" rx="14" fill="#fff" stroke="#f59e0b" stroke-width="1.3"/>
<text x="1152.5" y="630.75" font-family="Inter,Arial,sans-serif" font-size="13" font-weight="800" fill="#f59e0b" text-anchor="middle">1:N</text>
<path d="M1140 620 C1146.75 620,1148.25 917,1155 917" fill="none" stroke="#a855f7" stroke-width="2.5" stroke-linecap="round" />
<rect x="1115.5" y="753.5" width="64" height="28" rx="14" fill="#fff" stroke="#a855f7" stroke-width="1.3"/>
<text x="1147.5" y="772.5" font-family="Inter,Arial,sans-serif" font-size="13" font-weight="800" fill="#a855f7" text-anchor="middle">1:N</text>
<path d="M250 545 C650.5 545,739.5 620,1140 620" fill="none" stroke="#a855f7" stroke-width="2.5" stroke-linecap="round" />
<rect x="663" y="567.5" width="64" height="28" rx="14" fill="#fff" stroke="#a855f7" stroke-width="1.3"/>
<text x="695" y="586.5" font-family="Inter,Arial,sans-serif" font-size="13" font-weight="800" fill="#a855f7" text-anchor="middle">1:N</text>
<path d="M1580 309.5 C1582.25 309.5,1582.75 556.5,1585 556.5" fill="none" stroke="#f97316" stroke-width="2.5" stroke-linecap="round" />
<rect x="1550.5" y="418" width="64" height="28" rx="14" fill="#fff" stroke="#f97316" stroke-width="1.3"/>
<text x="1582.5" y="437" font-family="Inter,Arial,sans-serif" font-size="13" font-weight="800" fill="#f97316" text-anchor="middle">1:N</text>
<path d="M250 545 C850.75 545,984.2500000000001 556.5,1585 556.5" fill="none" stroke="#f97316" stroke-width="2.5" stroke-linecap="round" />
<rect x="885.5" y="535.75" width="64" height="28" rx="14" fill="#fff" stroke="#f97316" stroke-width="1.3"/>
<text x="917.5" y="554.75" font-family="Inter,Arial,sans-serif" font-size="13" font-weight="800" fill="#f97316" text-anchor="middle">1:0..1</text>
<path d="M1585 556.5 C1591.75 556.5,1593.25 1011.5,1600 1011.5" fill="none" stroke="#f97316" stroke-width="2.5" stroke-linecap="round" />
<rect x="1560.5" y="769" width="64" height="28" rx="14" fill="#fff" stroke="#f97316" stroke-width="1.3"/>
<text x="1592.5" y="788" font-family="Inter,Arial,sans-serif" font-size="13" font-weight="800" fill="#f97316" text-anchor="middle">1:N</text>
<path d="M1155 917 C1350.75 917,1394.25 791.5,1590 791.5" fill="none" stroke="#ca8a04" stroke-width="2.5" stroke-linecap="round" />
<rect x="1340.5" y="839.25" width="64" height="28" rx="14" fill="#fff" stroke="#ca8a04" stroke-width="1.3"/>
<text x="1372.5" y="858.25" font-family="Inter,Arial,sans-serif" font-size="13" font-weight="800" fill="#ca8a04" text-anchor="middle">1:N</text>
<path d="M1155 917 C1355.25 917,1399.75 1011.5,1600 1011.5" fill="none" stroke="#ca8a04" stroke-width="2.5" stroke-linecap="round" />
<rect x="1345.5" y="949.25" width="64" height="28" rx="14" fill="#fff" stroke="#ca8a04" stroke-width="1.3"/>
<text x="1377.5" y="968.25" font-family="Inter,Arial,sans-serif" font-size="13" font-weight="800" fill="#ca8a04" text-anchor="middle">1:N</text>
<path d="M1155 917 C1456.5 917,1523.5 791.5,1825 791.5" fill="none" stroke="#ca8a04" stroke-width="2.5" stroke-linecap="round" />
<rect x="1458" y="839.25" width="64" height="28" rx="14" fill="#fff" stroke="#ca8a04" stroke-width="1.3"/>
<text x="1490" y="858.25" font-family="Inter,Arial,sans-serif" font-size="13" font-weight="800" fill="#ca8a04" text-anchor="middle">1:N</text>
<path d="M1155 917 C1452 917,1518 998,1815 998" fill="none" stroke="#ca8a04" stroke-width="2.5" stroke-linecap="round" />
<rect x="1453" y="942.5" width="64" height="28" rx="14" fill="#fff" stroke="#ca8a04" stroke-width="1.3"/>
<text x="1485" y="961.5" font-family="Inter,Arial,sans-serif" font-size="13" font-weight="800" fill="#ca8a04" text-anchor="middle">1:N</text>
<path d="M250 545 C853 545,987.0000000000001 791.5,1590 791.5" fill="none" stroke="#64748b" stroke-width="2.5" stroke-linecap="round" stroke-dasharray="8 8"/>
<rect x="888" y="653.25" width="64" height="28" rx="14" fill="#fff" stroke="#64748b" stroke-width="1.3"/>
<text x="920" y="672.25" font-family="Inter,Arial,sans-serif" font-size="13" font-weight="800" fill="#64748b" text-anchor="middle">staff</text>
<path d="M250 545 C958.75 545,1116.25 791.5,1825 791.5" fill="none" stroke="#64748b" stroke-width="2.5" stroke-linecap="round" stroke-dasharray="8 8"/>
<rect x="1005.5" y="653.25" width="64" height="28" rx="14" fill="#fff" stroke="#64748b" stroke-width="1.3"/>
<text x="1037.5" y="672.25" font-family="Inter,Arial,sans-serif" font-size="13" font-weight="800" fill="#64748b" text-anchor="middle">ubah</text>
<path d="M250 545 C954.25 545,1110.75 998,1815 998" fill="none" stroke="#64748b" stroke-width="2.5" stroke-linecap="round" stroke-dasharray="8 8"/>
<rect x="1000.5" y="756.5" width="64" height="28" rx="14" fill="#fff" stroke="#64748b" stroke-width="1.3"/>
<text x="1032.5" y="775.5" font-family="Inter,Arial,sans-serif" font-size="13" font-weight="800" fill="#64748b" text-anchor="middle">arsip</text>
<rect x="1040" y="1095" width="695" height="54" rx="27" fill="#111827" stroke="#111827" stroke-width="1"/>
<text x="1070" y="1129" font-family="Inter,Arial,sans-serif" font-size="16" font-weight="800" fill="#fff" text-anchor="start">Mahasiswa ajukan surat</text>
<text x="1272" y="1129" font-family="Inter,Arial,sans-serif" font-size="18" font-weight="900" fill="#facc15" text-anchor="start">-&gt;</text>
<text x="1310" y="1129" font-family="Inter,Arial,sans-serif" font-size="16" font-weight="800" fill="#fff" text-anchor="start">Validasi</text>
<text x="1402" y="1129" font-family="Inter,Arial,sans-serif" font-size="18" font-weight="900" fill="#facc15" text-anchor="start">-&gt;</text>
<text x="1440" y="1129" font-family="Inter,Arial,sans-serif" font-size="16" font-weight="800" fill="#fff" text-anchor="start">Persetujuan</text>
<text x="1565" y="1129" font-family="Inter,Arial,sans-serif" font-size="18" font-weight="900" fill="#facc15" text-anchor="start">-&gt;</text>
<text x="1604" y="1129" font-family="Inter,Arial,sans-serif" font-size="16" font-weight="800" fill="#fff" text-anchor="start">Arsip</text>
<rect x="70" y="1090" width="550" height="54" rx="18" fill="#ffffffcc" stroke="#d5ddec" stroke-width="1"/>
<rect x="96" y="1106" width="36" height="20" rx="10" fill="#fee2e2" stroke="#fee2e2" stroke-width="1"/>
<text x="114" y="1120" font-family="Inter,Arial,sans-serif" font-size="11" font-weight="800" fill="#991b1b" text-anchor="middle">PK</text>
<text x="145" y="1121" font-family="Inter,Arial,sans-serif" font-size="15" font-weight="700" fill="#334155" text-anchor="start">Primary key</text>
<rect x="285" y="1106" width="36" height="20" rx="10" fill="#dcfce7" stroke="#dcfce7" stroke-width="1"/>
<text x="303" y="1120" font-family="Inter,Arial,sans-serif" font-size="11" font-weight="800" fill="#166534" text-anchor="middle">FK</text>
<text x="334" y="1121" font-family="Inter,Arial,sans-serif" font-size="15" font-weight="700" fill="#334155" text-anchor="start">Foreign key</text>
<text x="490" y="1121" font-family="Inter,Arial,sans-serif" font-size="15" font-weight="700" fill="#334155" text-anchor="start">Garis putus-putus = peran user</text>
</svg>